<svg width="261" height="131" viewBox="0 0 261 131" fill="none" xmlns="http://www.w3.org/2000/svg">
<path d="M260.566 105.072V131H257.121V105.072H260.566Z" fill="#FBECEC"/>
<path d="M234.797 112.279H238.242V127.537H247.893V112.279H251.355V131H247.893V127.836C247.857 128.27 247.74 128.68 247.541 129.066C247.342 129.453 247.084 129.793 246.768 130.086C246.463 130.367 246.111 130.59 245.713 130.754C245.314 130.918 244.893 131 244.447 131H238.242C237.773 131 237.328 130.912 236.906 130.736C236.484 130.549 236.115 130.303 235.799 129.998C235.494 129.682 235.248 129.312 235.061 128.891C234.885 128.469 234.797 128.018 234.797 127.537V112.279Z" fill="#FBECEC"/>
<path d="M229.014 127.537C229.014 128.018 228.92 128.469 228.732 128.891C228.557 129.312 228.311 129.682 227.994 129.998C227.689 130.303 227.326 130.549 226.904 130.736C226.494 130.912 226.049 131 225.568 131H216.27C215.801 131 215.355 130.912 214.934 130.736C214.512 130.549 214.143 130.303 213.826 129.998C213.521 129.682 213.275 129.312 213.088 128.891C212.912 128.469 212.824 128.018 212.824 127.537V115.742C212.824 115.262 212.912 114.811 213.088 114.389C213.275 113.967 213.521 113.604 213.826 113.299C214.143 112.982 214.512 112.736 214.934 112.561C215.355 112.373 215.801 112.279 216.27 112.279H225.568C226.049 112.279 226.494 112.373 226.904 112.561C227.326 112.736 227.689 112.982 227.994 113.299C228.311 113.604 228.557 113.967 228.732 114.389C228.92 114.811 229.014 115.262 229.014 115.742V127.537ZM216.27 115.742V127.537H225.568V115.742H216.27Z" fill="#FBECEC"/>
<path d="M190.834 120.207C190.342 120.207 189.873 120.113 189.428 119.926C188.994 119.727 188.613 119.469 188.285 119.152C187.957 118.824 187.699 118.443 187.512 118.01C187.324 117.564 187.23 117.096 187.23 116.604V109.396C187.23 108.904 187.324 108.441 187.512 108.008C187.699 107.562 187.957 107.182 188.285 106.865C188.613 106.537 188.994 106.279 189.428 106.092C189.873 105.893 190.342 105.793 190.834 105.793H203.068C203.561 105.793 204.023 105.893 204.457 106.092C204.902 106.279 205.289 106.537 205.617 106.865C205.945 107.182 206.203 107.562 206.391 108.008C206.578 108.441 206.672 108.904 206.672 109.396V112.648H203.068V109.396H190.834V116.604H203.068C203.561 116.604 204.023 116.697 204.457 116.885C204.902 117.072 205.289 117.33 205.617 117.658C205.945 117.986 206.203 118.373 206.391 118.818C206.578 119.252 206.672 119.715 206.672 120.207V127.396C206.672 127.889 206.578 128.357 206.391 128.803C206.203 129.236 205.945 129.617 205.617 129.945C205.289 130.273 204.902 130.531 204.457 130.719C204.023 130.906 203.561 131 203.068 131H190.482C189.99 131 189.521 130.906 189.076 130.719C188.643 130.531 188.262 130.273 187.934 129.945C187.605 129.617 187.348 129.236 187.16 128.803C186.973 128.357 186.879 127.889 186.879 127.396V124.162H190.482V127.396H203.068V120.207H190.834Z" fill="#FBECEC"/>
<path d="M161.18 115.742V131H157.734V112.279H161.18V115.584C161.203 115.127 161.309 114.699 161.496 114.301C161.684 113.891 161.93 113.539 162.234 113.246C162.551 112.941 162.914 112.707 163.324 112.543C163.734 112.367 164.174 112.279 164.643 112.279H168.316C168.797 112.279 169.242 112.373 169.652 112.561C170.074 112.736 170.443 112.982 170.76 113.299C171.076 113.604 171.322 113.967 171.498 114.389C171.686 114.811 171.779 115.262 171.779 115.742V118.906H168.316V115.742H161.18Z" fill="#FBECEC"/>
<path d="M151.951 127.537C151.951 128.018 151.857 128.469 151.67 128.891C151.494 129.312 151.248 129.682 150.932 129.998C150.627 130.303 150.264 130.549 149.842 130.736C149.432 130.912 148.986 131 148.506 131H139.207C138.738 131 138.293 130.912 137.871 130.736C137.449 130.549 137.08 130.303 136.764 129.998C136.459 129.682 136.213 129.312 136.025 128.891C135.85 128.469 135.762 128.018 135.762 127.537V115.742C135.762 115.262 135.85 114.811 136.025 114.389C136.213 113.967 136.459 113.604 136.764 113.299C137.08 112.982 137.449 112.736 137.871 112.561C138.293 112.373 138.738 112.279 139.207 112.279H148.506C148.986 112.279 149.432 112.373 149.842 112.561C150.264 112.736 150.627 112.982 150.932 113.299C151.248 113.604 151.494 113.967 151.67 114.389C151.857 114.811 151.951 115.262 151.951 115.742V127.537ZM139.207 115.742V127.537H148.506V115.742H139.207Z" fill="#FBECEC"/>
<path d="M124.916 108.535V112.279H131.068V115.742H124.916V131H121.453V115.742H116.883V112.279H121.453V108.535C121.453 108.055 121.541 107.609 121.717 107.199C121.904 106.777 122.156 106.408 122.473 106.092C122.789 105.775 123.158 105.529 123.58 105.354C124.002 105.166 124.447 105.072 124.916 105.072H131.068V108.535H124.916Z" fill="#FBECEC"/>
<path d="M89.0039 115.742V127.537H97.9336V124.373H101.396V127.537C101.396 128.018 101.303 128.469 101.115 128.891C100.939 129.312 100.693 129.682 100.377 129.998C100.072 130.303 99.709 130.549 99.2871 130.736C98.8652 130.912 98.4141 131 97.9336 131H89.0039C88.5352 131 88.0898 130.912 87.668 130.736C87.2461 130.549 86.877 130.303 86.5605 129.998C86.2559 129.682 86.0098 129.312 85.8223 128.891C85.6465 128.469 85.5586 128.018 85.5586 127.537V115.742C85.5586 115.262 85.6465 114.811 85.8223 114.389C86.0098 113.967 86.2559 113.604 86.5605 113.299C86.877 112.982 87.2461 112.736 87.668 112.561C88.0898 112.373 88.5352 112.279 89.0039 112.279H97.9336C98.4141 112.279 98.8652 112.373 99.2871 112.561C99.709 112.736 100.072 112.982 100.377 113.299C100.693 113.604 100.939 113.967 101.115 114.389C101.303 114.811 101.396 115.262 101.396 115.742V118.906H97.9336V115.742H89.0039Z" fill="#FBECEC"/>
<path d="M79.5996 112.279V131H76.1367V112.279H79.5996ZM75.9609 105.072H79.7754V108.676H75.9609V105.072Z" fill="#FBECEC"/>
<path d="M67.084 127.537V123.195H58.875C58.3945 123.195 57.9434 123.107 57.5215 122.932C57.0996 122.744 56.7305 122.498 56.4141 122.193C56.1094 121.877 55.8633 121.508 55.6758 121.086C55.5 120.664 55.4121 120.213 55.4121 119.732V115.742C55.4121 115.262 55.5 114.811 55.6758 114.389C55.8633 113.967 56.1094 113.604 56.4141 113.299C56.7305 112.982 57.0996 112.736 57.5215 112.561C57.9434 112.373 58.3945 112.279 58.875 112.279H69.8262V115.742H58.875V119.732H67.084C67.5645 119.732 68.0098 119.826 68.4199 120.014C68.8418 120.189 69.2109 120.436 69.5273 120.752C69.8438 121.057 70.0898 121.42 70.2656 121.842C70.4531 122.264 70.5469 122.715 70.5469 123.195V127.537C70.5469 128.018 70.4531 128.469 70.2656 128.891C70.0898 129.312 69.8438 129.682 69.5273 129.998C69.2109 130.303 68.8418 130.549 68.4199 130.736C68.0098 130.912 67.5645 131 67.084 131H55.4121V127.537H67.084Z" fill="#FBECEC"/>
<path d="M33.457 112.279H36.9023V127.537H46.5527V112.279H50.0156V131H46.5527V127.836C46.5176 128.27 46.4004 128.68 46.2012 129.066C46.002 129.453 45.7441 129.793 45.4277 130.086C45.123 130.367 44.7715 130.59 44.373 130.754C43.9746 130.918 43.5527 131 43.1074 131H36.9023C36.4336 131 35.9883 130.912 35.5664 130.736C35.1445 130.549 34.7754 130.303 34.459 129.998C34.1543 129.682 33.9082 129.312 33.7207 128.891C33.5449 128.469 33.457 128.018 33.457 127.537V112.279Z" fill="#FBECEC"/>
<path d="M13.2422 131L3.83789 112.525V131H0.234375V105.793H4.17188L13.7695 124.777L23.3848 105.793H27.3047V131H23.7188V112.525L14.3145 131H13.2422Z" fill="#FBECEC"/>
<path d="M179 48C179 74.5097 157.51 96 131 96C104.49 96 83 74.5097 83 48C83 21.4903 104.49 0 131 0C157.51 0 179 21.4903 179 48Z" fill="url(#paint0_linear_40_57)"/>
<path d="M136.104 59.192C135.48 59.72 134.664 60.152 133.656 60.488C132.696 60.776 131.568 60.92 130.272 60.92C128.544 60.92 127.104 60.704 125.952 60.272C124.848 59.84 124.128 59.096 123.792 58.04C122.448 53.816 121.344 50.408 120.48 47.816C119.616 45.176 118.944 42.872 118.464 40.904H118.104C117.96 43.736 117.84 46.328 117.744 48.68C117.696 50.984 117.648 53.24 117.6 55.448C117.6 57.656 117.552 59.888 117.456 62.144C117.408 64.4 117.312 66.896 117.168 69.632C116.544 69.872 115.728 70.064 114.72 70.208C113.712 70.4 112.704 70.496 111.696 70.496C109.584 70.496 107.928 70.16 106.728 69.488C105.576 68.816 105 67.592 105 65.816L107.088 29.096C107.472 28.472 108.312 27.8 109.608 27.08C110.904 26.36 112.728 26 115.08 26C117.624 26 119.616 26.408 121.056 27.224C122.496 27.992 123.552 29.264 124.224 31.04C124.656 32.192 125.112 33.512 125.592 35C126.12 36.488 126.624 38.024 127.104 39.608C127.632 41.192 128.136 42.776 128.616 44.36C129.096 45.896 129.528 47.288 129.912 48.536H130.272C131.424 44.504 132.576 40.616 133.728 36.872C134.88 33.08 135.936 29.912 136.896 27.368C137.616 26.984 138.528 26.672 139.632 26.432C140.784 26.144 142.056 26 143.448 26C145.8 26 147.72 26.36 149.208 27.08C150.696 27.752 151.56 28.736 151.8 30.032C151.992 30.992 152.184 32.48 152.376 34.496C152.616 36.464 152.856 38.696 153.096 41.192C153.336 43.688 153.576 46.328 153.816 49.112C154.056 51.896 154.272 54.584 154.464 57.176C154.704 59.72 154.896 62.072 155.04 64.232C155.184 66.344 155.28 67.976 155.328 69.128C154.512 69.608 153.648 69.944 152.736 70.136C151.872 70.376 150.744 70.496 149.352 70.496C147.528 70.496 145.992 70.184 144.744 69.56C143.496 68.936 142.824 67.712 142.728 65.888C142.44 60.656 142.248 55.952 142.152 51.776C142.104 47.6 142.008 44.096 141.864 41.264H141.504C141.024 43.136 140.328 45.488 139.416 48.32C138.504 51.152 137.4 54.776 136.104 59.192Z" fill="#E0D2D2"/>
<defs>
<linearGradient id="paint0_linear_40_57" x1="158.636" y1="9.45454" x2="107" y2="90.1818" gradientUnits="userSpaceOnUse">
<stop offset="0.0696303" stop-color="#E20707" stop-opacity="0.67"/>
<stop offset="0.9998" stop-color="#1F1212"/>
<stop offset="0.9999" stop-color="#59CAEE"/>
<stop offset="1" stop-color="#051010"/>
</linearGradient>
</defs>
</svg>
