<svg width="274" height="139" viewBox="0 0 274 139" fill="none" xmlns="http://www.w3.org/2000/svg">
<path d="M24.873 105.793V131H21.2695V120.207H6.83789V131H3.23438V105.793H6.83789V116.604H21.2695V105.793H24.873ZM46.8457 123.406H34.4531V127.537H46.8457V131H34.4531C33.9844 131 33.5391 130.912 33.1172 130.736C32.6953 130.549 32.3262 130.303 32.0098 129.998C31.7051 129.682 31.459 129.312 31.2715 128.891C31.0957 128.469 31.0078 128.018 31.0078 127.537V115.742C31.0078 115.262 31.0957 114.811 31.2715 114.389C31.459 113.967 31.7051 113.604 32.0098 113.299C32.3262 112.982 32.6953 112.736 33.1172 112.561C33.5391 112.373 33.9844 112.279 34.4531 112.279H43.3828C43.8633 112.279 44.3145 112.373 44.7363 112.561C45.1582 112.736 45.5215 112.982 45.8262 113.299C46.1426 113.604 46.3887 113.967 46.5645 114.389C46.752 114.811 46.8457 115.262 46.8457 115.742V123.406ZM34.4531 115.742V119.943H43.3828V115.742H34.4531ZM52.6289 122.826C52.6289 122.346 52.7168 121.9 52.8926 121.49C53.0801 121.068 53.3262 120.699 53.6309 120.383C53.9473 120.066 54.3164 119.82 54.7383 119.645C55.1602 119.457 55.6055 119.363 56.0742 119.363H65.0039V115.742H53.7012V112.279H65.0039C65.4844 112.279 65.9355 112.373 66.3574 112.561C66.7793 112.736 67.1426 112.982 67.4473 113.299C67.7637 113.604 68.0098 113.967 68.1855 114.389C68.373 114.811 68.4668 115.262 68.4668 115.742V131H65.0039V127.836C64.9688 128.27 64.8516 128.68 64.6523 129.066C64.4531 129.453 64.1953 129.793 63.8789 130.086C63.5742 130.367 63.2227 130.59 62.8242 130.754C62.4258 130.918 62.0039 131 61.5586 131H56.0742C55.6055 131 55.1602 130.912 54.7383 130.736C54.3164 130.549 53.9473 130.303 53.6309 129.998C53.3262 129.682 53.0801 129.312 52.8926 128.891C52.7168 128.469 52.6289 128.018 52.6289 127.537V122.826ZM56.0742 127.537H65.0039V122.826H56.0742V127.537ZM77.6953 105.072V131H74.25V105.072H77.6953ZM82.3711 112.279H86.9414V106.514H90.4043V112.279H96.5566V115.742H90.4043V127.537H96.5566V131H90.4043C89.9355 131 89.4902 130.912 89.0684 130.736C88.6465 130.549 88.2773 130.303 87.9609 129.998C87.6445 129.682 87.3926 129.312 87.2051 128.891C87.0293 128.469 86.9414 128.018 86.9414 127.537V115.742H82.3711V112.279ZM118.898 131H115.436V115.742H105.785V131H102.34V105.072H105.785V115.584C105.809 115.127 105.914 114.699 106.102 114.301C106.289 113.891 106.535 113.539 106.84 113.246C107.156 112.941 107.52 112.707 107.93 112.543C108.34 112.367 108.779 112.279 109.248 112.279H115.436C115.916 112.279 116.367 112.373 116.789 112.561C117.211 112.736 117.574 112.982 117.879 113.299C118.195 113.604 118.441 113.967 118.617 114.389C118.805 114.811 118.898 115.262 118.898 115.742V131ZM146.971 105.793L156.691 131H153.088L150.855 125.199H139.482L137.25 131H133.646L143.367 105.793H146.971ZM140.854 121.596H149.467L145.178 110.486L140.854 121.596ZM164.303 112.279V131H160.84V112.279H164.303ZM160.664 105.072H164.479V108.676H160.664V105.072ZM170.262 115.742C170.262 115.262 170.35 114.811 170.525 114.389C170.713 113.967 170.959 113.604 171.264 113.299C171.58 112.982 171.949 112.736 172.371 112.561C172.793 112.373 173.238 112.279 173.707 112.279H183.357V105.072H186.82V131H183.357V127.836C183.322 128.27 183.205 128.68 183.006 129.066C182.807 129.453 182.549 129.793 182.232 130.086C181.928 130.367 181.576 130.59 181.178 130.754C180.779 130.918 180.357 131 179.912 131H173.707C173.238 131 172.793 130.912 172.371 130.736C171.949 130.549 171.58 130.303 171.264 129.998C170.959 129.682 170.713 129.312 170.525 128.891C170.35 128.469 170.262 128.018 170.262 127.537V115.742ZM173.707 127.537H183.357V115.742H173.707V127.537ZM225.369 105.793V131H221.766V120.207H207.334V131H203.73V105.793H207.334V116.604H221.766V105.793H225.369ZM231.504 112.279H234.949V127.537H244.6V112.279H248.062V131H244.6V127.836C244.564 128.27 244.447 128.68 244.248 129.066C244.049 129.453 243.791 129.793 243.475 130.086C243.17 130.367 242.818 130.59 242.42 130.754C242.021 130.918 241.6 131 241.154 131H234.949C234.48 131 234.035 130.912 233.613 130.736C233.191 130.549 232.822 130.303 232.506 129.998C232.201 129.682 231.955 129.312 231.768 128.891C231.592 128.469 231.504 128.018 231.504 127.537V112.279ZM270.387 127.537C270.387 128.018 270.293 128.469 270.105 128.891C269.93 129.312 269.684 129.682 269.367 129.998C269.062 130.303 268.699 130.549 268.277 130.736C267.855 130.912 267.404 131 266.924 131H257.273C256.805 131 256.359 130.912 255.938 130.736C255.516 130.549 255.146 130.303 254.83 129.998C254.525 129.682 254.279 129.312 254.092 128.891C253.916 128.469 253.828 128.018 253.828 127.537V105.072H257.273V115.584C257.297 115.127 257.402 114.699 257.59 114.301C257.777 113.891 258.023 113.539 258.328 113.246C258.645 112.941 259.008 112.707 259.418 112.543C259.828 112.367 260.268 112.279 260.736 112.279H266.924C267.404 112.279 267.855 112.373 268.277 112.561C268.699 112.736 269.062 112.982 269.367 113.299C269.684 113.604 269.93 113.967 270.105 114.389C270.293 114.811 270.387 115.262 270.387 115.742V127.537ZM257.273 115.742V127.537H266.924V115.742H257.273Z" fill="#0AB3A8"/>
<circle cx="137" cy="48" r="48" fill="url(#paint0_linear_14_48)"/>
<path d="M122.28 61.84C121.987 61.92 121.52 62 120.88 62.08C120.267 62.16 119.653 62.2 119.04 62.2C118.427 62.2 117.88 62.1467 117.4 62.04C116.947 61.96 116.56 61.8 116.24 61.56C115.92 61.32 115.68 60.9867 115.52 60.56C115.36 60.1333 115.28 59.5733 115.28 58.88V52.64H107.6V61.84C107.307 61.92 106.84 62 106.2 62.08C105.587 62.16 104.973 62.2 104.36 62.2C103.747 62.2 103.2 62.1467 102.72 62.04C102.267 61.96 101.88 61.8 101.56 61.56C101.24 61.32 101 60.9867 100.84 60.56C100.68 60.1333 100.6 59.5733 100.6 58.88V37.76C100.893 37.7067 101.36 37.64 102 37.56C102.64 37.4533 103.253 37.4 103.84 37.4C104.453 37.4 104.987 37.4533 105.44 37.56C105.92 37.64 106.32 37.8 106.64 38.04C106.96 38.28 107.2 38.6133 107.36 39.04C107.52 39.4667 107.6 40.0267 107.6 40.72V47.12H115.28V37.76C115.573 37.7067 116.04 37.64 116.68 37.56C117.32 37.4533 117.933 37.4 118.52 37.4C119.133 37.4 119.667 37.4533 120.12 37.56C120.6 37.64 121 37.8 121.32 38.04C121.64 38.28 121.88 38.6133 122.04 39.04C122.2 39.4667 122.28 40.0267 122.28 40.72V61.84ZM132.635 38.48C133.088 38.2133 133.768 37.96 134.675 37.72C135.608 37.48 136.542 37.36 137.475 37.36C138.808 37.36 139.982 37.56 140.995 37.96C142.035 38.3333 142.702 38.9333 142.995 39.76C143.475 41.1467 143.995 42.76 144.555 44.6C145.115 46.44 145.675 48.3467 146.235 50.32C146.795 52.2667 147.342 54.2 147.875 56.12C148.408 58.0133 148.875 59.6933 149.275 61.16C148.955 61.5333 148.475 61.8267 147.835 62.04C147.195 62.28 146.435 62.4 145.555 62.4C144.915 62.4 144.368 62.3467 143.915 62.24C143.488 62.1333 143.128 61.9733 142.835 61.76C142.568 61.5467 142.342 61.2667 142.155 60.92C141.995 60.5733 141.848 60.1733 141.715 59.72L140.995 56.96H133.755C133.542 57.76 133.328 58.5867 133.115 59.44C132.902 60.2933 132.688 61.12 132.475 61.92C132.102 62.0533 131.702 62.16 131.275 62.24C130.875 62.3467 130.382 62.4 129.795 62.4C128.435 62.4 127.422 62.1733 126.755 61.72C126.115 61.24 125.795 60.5867 125.795 59.76C125.795 59.3867 125.848 59.0133 125.955 58.64C126.062 58.2667 126.182 57.8267 126.315 57.32C126.502 56.6 126.755 55.7067 127.075 54.64C127.422 53.5733 127.795 52.4267 128.195 51.2C128.595 49.9467 129.022 48.6667 129.475 47.36C129.928 46.0533 130.355 44.8267 130.755 43.68C131.155 42.5067 131.515 41.4667 131.835 40.56C132.182 39.6533 132.448 38.96 132.635 38.48ZM137.435 43.64C137.062 44.76 136.635 46.0133 136.155 47.4C135.702 48.76 135.288 50.1467 134.915 51.56H139.875C139.502 50.12 139.115 48.72 138.715 47.36C138.342 45.9733 137.995 44.7333 137.675 43.64H137.435ZM174.233 61.84C173.94 61.92 173.473 62 172.833 62.08C172.22 62.16 171.606 62.2 170.993 62.2C170.38 62.2 169.833 62.1467 169.353 62.04C168.9 61.96 168.513 61.8 168.193 61.56C167.873 61.32 167.633 60.9867 167.473 60.56C167.313 60.1333 167.233 59.5733 167.233 58.88V52.64H159.553V61.84C159.26 61.92 158.793 62 158.153 62.08C157.54 62.16 156.926 62.2 156.313 62.2C155.7 62.2 155.153 62.1467 154.673 62.04C154.22 61.96 153.833 61.8 153.513 61.56C153.193 61.32 152.953 60.9867 152.793 60.56C152.633 60.1333 152.553 59.5733 152.553 58.88V37.76C152.846 37.7067 153.313 37.64 153.953 37.56C154.593 37.4533 155.206 37.4 155.793 37.4C156.406 37.4 156.94 37.4533 157.393 37.56C157.873 37.64 158.273 37.8 158.593 38.04C158.913 38.28 159.153 38.6133 159.313 39.04C159.473 39.4667 159.553 40.0267 159.553 40.72V47.12H167.233V37.76C167.526 37.7067 167.993 37.64 168.633 37.56C169.273 37.4533 169.886 37.4 170.473 37.4C171.086 37.4 171.62 37.4533 172.073 37.56C172.553 37.64 172.953 37.8 173.273 38.04C173.593 38.28 173.833 38.6133 173.993 39.04C174.153 39.4667 174.233 40.0267 174.233 40.72V61.84Z" fill="#F5F5F5"/>
<defs>
<linearGradient id="paint0_linear_14_48" x1="164.636" y1="9.45454" x2="113" y2="90.1818" gradientUnits="userSpaceOnUse">
<stop offset="0.0696303" stop-color="#26EEA0" stop-opacity="0.67"/>
<stop offset="0.9998" stop-color="#208285"/>
<stop offset="0.9999" stop-color="#59CAEE"/>
<stop offset="1" stop-color="#145B7D"/>
</linearGradient>
</defs>
</svg>
