<svg width="255" height="162" viewBox="0 0 255 162" fill="none" xmlns="http://www.w3.org/2000/svg">
<path d="M4 80.8656C4.33067 81.5311 4.744 82.4462 5.24 83.6109C5.736 84.7755 6.976 87.188 8.96 90.8484C10.944 94.5087 13.0933 98.0027 15.408 101.33C17.7227 104.658 20.9467 108.651 25.08 113.31C29.2133 117.968 33.512 122.377 37.976 126.537C42.44 130.696 47.9787 134.773 54.592 138.766C61.2053 142.759 67.984 146.253 74.928 149.248C81.872 152.242 89.9733 154.572 99.232 156.236C108.491 157.899 118.08 158.814 128 158.981C137.92 159.147 147.509 158.232 156.768 156.236C166.027 154.239 174.211 151.826 181.32 148.998C188.429 146.17 195.125 142.759 201.408 138.766C207.691 134.773 213.229 130.613 218.024 126.287C222.819 121.961 227.117 117.719 230.92 113.559C234.723 109.4 237.947 105.24 240.592 101.081C243.237 96.9212 245.387 93.5105 247.04 90.8484C248.693 88.1863 249.933 85.7738 250.76 83.6109L252 80.8656C251.835 80.2001 251.421 79.285 250.76 78.1204C250.099 76.9557 248.859 74.6264 247.04 71.1324C245.221 67.6384 243.072 64.1445 240.592 60.6505C238.112 57.1565 234.888 53.0802 230.92 48.4216C226.952 43.763 222.653 39.4371 218.024 35.444C213.395 31.4509 207.856 27.3746 201.408 23.2151C194.96 19.0556 188.181 15.5617 181.072 12.7332C173.963 9.90475 165.861 7.57544 156.768 5.74526C147.675 3.91509 138.085 3 128 3C117.915 3 108.325 3.91509 99.232 5.74526C90.1387 7.57544 81.9547 9.90475 74.68 12.7332C67.4053 15.5617 60.7093 19.0556 54.592 23.2151C48.4747 27.3746 42.936 31.4509 37.976 35.444C33.016 39.4371 28.7173 43.763 25.08 48.4216C21.4427 53.0802 18.2187 57.1565 15.408 60.6505C12.5973 64.1445 10.448 67.6384 8.96 71.1324C7.472 74.6264 6.232 77.0389 5.24 78.3699L4 80.8656ZM81.624 80.8656C81.624 68.0544 86.088 57.0733 95.016 47.9225C103.944 38.7716 114.939 34.1962 128 34.1962C141.061 34.1962 152.056 38.7716 160.984 47.9225C169.912 57.0733 174.459 68.0544 174.624 80.8656C174.789 93.6768 170.243 104.741 160.984 114.058C151.725 123.376 140.731 127.951 128 127.785C115.269 127.618 104.275 123.043 95.016 114.058C85.7573 105.074 81.2933 94.0096 81.624 80.8656ZM97 80.8656C97 89.5174 100.059 96.9212 106.176 103.077C112.293 109.233 119.568 112.228 128 112.062C136.432 111.895 143.707 108.901 149.824 103.077C155.941 97.254 159 89.8501 159 80.8656C159 71.8811 155.941 64.5604 149.824 58.9035C143.707 53.2466 136.432 50.1686 128 49.6695C119.568 49.1703 112.293 52.2483 106.176 58.9035L128 80.8656H97Z" fill="#E20707"/>
<path fill-rule="evenodd" clip-rule="evenodd" d="M98.1819 2.80345C107.503 0.931364 117.309 0 127.595 0C137.88 0 147.687 0.931364 157.007 2.80345C166.259 4.66155 174.553 7.0366 181.874 9.94308C189.177 12.8428 196.142 16.4253 202.765 20.6891C209.315 24.9051 214.981 29.0626 219.747 33.1653C224.502 37.2583 228.918 41.6928 232.993 46.4679C237.005 51.1674 240.295 55.3157 242.848 58.9047C245.406 62.5009 247.633 66.1119 249.524 69.7381C251.35 73.2391 252.568 75.5196 253.199 76.6286C253.894 77.8503 254.478 79.0571 254.746 80.1363L255 81.1545L253.361 84.7756C252.446 87.1439 251.115 89.7027 249.411 92.4412C247.746 95.1157 245.587 98.5361 242.933 102.7C240.176 107.025 236.835 111.322 232.924 115.592C229.04 119.831 224.663 124.141 219.797 128.522C214.851 132.975 209.164 137.233 202.748 141.303C196.291 145.398 189.414 148.893 182.122 151.788C174.814 154.69 166.45 157.146 157.048 159.169C147.538 161.216 137.701 162.15 127.545 161.98C117.454 161.811 107.686 160.882 98.2429 159.189C88.7935 157.494 80.4482 155.109 73.237 152.005C66.1522 148.956 59.2396 145.4 52.4995 141.339C45.7407 137.266 40.0148 133.07 35.3565 128.739C30.8127 124.514 26.4392 120.037 22.2358 115.309C18.0527 110.604 14.7378 106.514 12.3253 103.053C9.94058 99.6316 7.72862 96.0428 5.68887 92.2874C3.71699 88.6569 2.40127 86.115 1.83802 84.7952C1.35056 83.653 0.962822 82.7994 0.669623 82.2106L0 80.8656L2.03286 76.7827L2.19495 76.5656C2.95479 75.5482 4.07962 73.4302 5.56531 69.9489C7.18246 66.1596 9.49206 62.4311 12.4511 58.7604C15.2558 55.281 18.4767 51.2171 22.1148 46.5671C25.9121 41.7137 30.3851 37.226 35.5205 33.1002C40.5622 29.0498 46.1779 24.9263 52.3635 20.7291C58.69 16.4363 65.6013 12.8398 73.089 9.93453C80.5644 7.03407 88.9332 4.66106 98.1819 2.80345ZM127.595 6.01783C117.67 6.01783 108.26 6.91644 99.3586 8.70428C90.3851 10.5066 82.3538 12.7917 75.2513 15.5475C68.1611 18.2985 61.6542 21.6891 55.7221 25.7144C49.649 29.8352 44.1656 33.8633 39.2679 37.7982C34.4638 41.6577 30.3226 45.8208 26.831 50.2836C23.1802 54.9498 19.9405 59.0375 17.1128 62.5453C14.4395 65.8617 12.442 69.1204 11.0773 72.3182C9.65006 75.6626 8.34667 78.2796 7.16356 79.941L6.68426 80.9036C6.89146 81.3636 7.11356 81.8718 7.35003 82.4259C7.78072 83.4352 8.94987 85.7178 10.9538 89.4072C12.8898 92.9716 14.9849 96.3699 17.2387 99.6032C19.4645 102.796 22.6102 106.691 26.71 111.303C30.7895 115.891 35.0302 120.231 39.4319 124.324C43.7191 128.311 49.0923 132.267 55.586 136.179C62.0986 140.104 68.7699 143.535 75.6003 146.474C82.3043 149.36 90.1935 151.632 99.2977 153.265C108.408 154.899 117.857 155.8 127.645 155.963C137.367 156.126 146.747 155.231 155.79 153.285C164.942 151.316 172.978 148.947 179.916 146.192C186.871 143.431 193.412 140.105 199.545 136.216C205.719 132.299 211.131 128.24 215.793 124.042C220.536 119.772 224.773 115.598 228.509 111.519C232.218 107.471 235.337 103.449 237.882 99.4572C240.529 95.3028 242.677 91.9023 244.325 89.2533C245.913 86.7013 247.056 84.4642 247.797 82.531L247.829 82.4476L248.595 80.7556C248.451 80.4537 248.255 80.0756 247.992 79.6128C247.298 78.3927 246.03 76.0151 244.212 72.529C242.459 69.168 240.379 65.7919 237.967 62.401C235.55 59.0028 232.38 54.9995 228.439 50.3828C224.564 45.8417 220.365 41.6255 215.843 37.7331C211.333 33.8505 205.9 29.8564 199.528 25.7544C193.23 21.7001 186.611 18.2954 179.668 15.5389C172.742 12.7892 164.802 10.5061 155.831 8.70428C146.929 6.91644 137.519 6.01783 127.595 6.01783ZM127.595 37.2104C115.291 37.2104 105.052 41.4762 96.6861 50.0336C88.2901 58.6213 84.1259 68.8446 84.1259 80.8656V80.9037L84.1249 80.9417C83.8145 93.2569 87.9666 103.502 96.6278 111.889C105.362 120.347 115.65 124.614 127.634 124.771C139.555 124.926 149.799 120.688 158.523 111.928C167.246 103.167 171.467 92.878 171.312 80.9047C171.157 68.87 166.909 58.6309 158.503 50.0336C150.137 41.4762 139.899 37.2104 127.595 37.2104ZM92.406 45.8189C101.931 36.0767 113.725 31.1926 127.595 31.1926C141.464 31.1926 153.259 36.0767 162.783 45.8189C172.269 55.5213 177.132 67.2418 177.308 80.8266C177.484 94.4727 172.594 106.31 162.764 116.181C152.934 126.053 141.146 130.965 127.556 130.788C114.028 130.612 102.284 125.729 92.4642 116.22C82.5808 106.649 77.7871 94.7809 78.1296 80.8276C78.1385 67.2452 82.9198 55.5218 92.406 45.8189ZM103.526 56.8636C110.218 49.5984 118.36 46.1134 127.771 46.6693C136.897 47.2084 144.844 50.5572 151.491 56.6912C158.288 62.9634 161.654 71.1111 161.654 80.8656C161.654 90.6197 158.289 98.8316 151.522 105.26C144.85 111.598 136.847 114.886 127.654 115.067C118.366 115.249 110.296 111.919 103.607 105.202C96.9198 98.4859 93.5358 90.3194 93.5358 80.8656V77.8567H120.36L101.57 58.9873L103.526 56.8636ZM109.975 58.9147L134.83 83.8745H99.6723C100.296 90.4273 103.004 96.0825 107.849 100.948C113.418 106.541 119.927 109.2 127.536 109.05C135.239 108.898 141.814 106.197 147.4 100.89C152.892 95.6727 155.657 89.0785 155.657 80.8656C155.657 72.6532 152.894 66.1612 147.432 61.1209C141.82 55.9424 135.19 53.1358 127.419 52.6768C120.832 52.2877 115.059 54.3078 109.975 58.9147Z" fill="#E20707"/>
</svg>
