<svg width="52" height="52" viewBox="0 0 52 52" fill="none" xmlns="http://www.w3.org/2000/svg">
<path d="M2.968 0H49.032C50.5934 0 52 1.40655 52 2.968V49.032C52 50.5934 50.5934 52 49.032 52H2.968C1.40655 52 0 50.5934 0 49.032V2.968C0 1.40655 1.40655 0 2.968 0ZM36.9276 29.1978H44.1103L44.4226 22.3275H36.9276V17.2534C36.9276 15.3022 37.3174 14.2079 39.8157 14.2079H44.1878L44.3452 7.80475C44.3452 7.80475 42.394 7.49246 39.5834 7.49246C32.713 7.49246 29.6675 11.7871 29.6675 16.394V22.3275H24.5934V29.1978H29.6675V48.2475H36.9276V29.1978Z" fill="#E20707"/>
</svg>
