<svg width="46" height="28" viewBox="0 0 46 28" fill="none" xmlns="http://www.w3.org/2000/svg">
<path d="M2.2564 0.232544C1.02894 0.232544 0.0338745 1.20781 0.0338745 2.41085C0.0338745 3.61387 1.02894 4.58915 2.2564 4.58915V0.232544ZM43.7436 4.58915C44.971 4.58915 45.9661 3.61387 45.9661 2.41085C45.9661 1.20781 44.971 0.232544 43.7436 0.232544V4.58915ZM2.2564 11.8502C1.02894 11.8502 0.0338745 12.8255 0.0338745 14.0285C0.0338745 15.2315 1.02894 16.2068 2.2564 16.2068V11.8502ZM37.8168 16.2068C39.0443 16.2068 40.0393 15.2315 40.0393 14.0285C40.0393 12.8255 39.0443 11.8502 37.8168 11.8502V16.2068ZM2.2564 23.4678C1.02894 23.4678 0.0338745 24.443 0.0338745 25.6461C0.0338745 26.8492 1.02894 27.8244 2.2564 27.8244V23.4678ZM23 27.8244C24.2275 27.8244 25.2225 26.8492 25.2225 25.6461C25.2225 24.443 24.2275 23.4678 23 23.4678V27.8244ZM2.2564 4.58915H43.7436V0.232544H2.2564V4.58915ZM2.2564 16.2068H37.8168V11.8502H2.2564V16.2068ZM2.2564 27.8244H23V23.4678H2.2564V27.8244Z" fill="#E20707"/>
</svg>
