<svg width="52" height="52" viewBox="0 0 52 52" fill="none" xmlns="http://www.w3.org/2000/svg">
<path d="M7.42857 0H44.5714C48.6571 0 52 3.34286 52 7.42857V44.5714C52 48.6571 48.6571 52 44.5714 52H7.42857C3.34286 52 0 48.6571 0 44.5714V7.42857C0 3.34286 3.34286 0 7.42857 0Z" fill="#E20707"/>
<path d="M35.8428 14.3C34.7285 14.3 33.6143 15.2286 33.6143 16.5286C33.6143 17.8286 34.5428 18.7571 35.8428 18.7571C37.1428 18.7571 38.0714 17.8286 38.0714 16.5286C37.8857 15.2286 36.9571 14.3 35.8428 14.3Z" fill="#4E3636"/>
<path d="M26 17.0858C20.9857 17.0858 16.9 21.1715 16.9 26.1858C16.9 31.2 20.9857 35.2858 26 35.2858C31.0143 35.2858 35.1 31.2 35.1 26.1858C35.2857 21.1715 31.2 17.0858 26 17.0858ZM26 32.1286C22.8429 32.1286 20.0572 29.5286 20.0572 26.1858C20.0572 23.0286 22.6572 20.2429 26 20.2429C29.1572 20.2429 31.9429 22.8429 31.9429 26.1858C31.9429 29.5286 29.3429 32.1286 26 32.1286Z" fill="#4E3636"/>
<path d="M33.4286 7.42859H18.5714C12.4429 7.42859 7.42859 12.4429 7.42859 18.5714V33.4286C7.42859 39.5572 12.4429 44.5714 18.5714 44.5714H33.4286C39.5572 44.5714 44.5714 39.5572 44.5714 33.4286V18.5714C44.5714 12.4429 39.5572 7.42859 33.4286 7.42859ZM41.0429 33.4286C41.0429 37.7 37.5143 41.0429 33.4286 41.0429H18.5714C14.3 41.0429 10.9572 37.5143 10.9572 33.4286V18.5714C10.9572 14.3 14.4857 10.9572 18.5714 10.9572H33.4286C37.7 10.9572 41.0429 14.4857 41.0429 18.5714V33.4286Z" fill="#4E3636"/>
</svg>
