<svg width="53" height="53" viewBox="0 0 53 53" fill="none" xmlns="http://www.w3.org/2000/svg">
<path d="M48.5022 0.663782H5.11872C4.55954 0.63759 4.00066 0.72192 3.47411 0.911995C2.94756 1.10207 2.46368 1.39412 2.05012 1.77141C1.6366 2.14873 1.30152 2.60392 1.06413 3.11087C0.826739 3.61786 0.691649 4.16667 0.666626 4.72591V48.207C0.699383 49.3772 1.17897 50.4909 2.0069 51.3186C2.83483 52.1466 3.9483 52.6263 5.11872 52.6591H48.5022C49.64 52.6084 50.7127 52.1138 51.4903 51.2816C52.268 50.4493 52.6885 49.3457 52.6619 48.207V4.72591C52.6713 4.18159 52.5692 3.64113 52.3622 3.13762C52.1552 2.63414 51.8475 2.17824 51.4578 1.79786C51.0685 1.41752 50.6055 1.12076 50.0972 0.925742C49.5889 0.730727 49.0462 0.641587 48.5022 0.663782ZM16.9151 44.0149H9.34333V20.8445H16.9151V44.0149ZM13.308 17.3348C12.7796 17.3532 12.2531 17.2621 11.7616 17.0673C11.2701 16.8726 10.8242 16.5782 10.4519 16.2029C10.0796 15.8275 9.7889 15.3792 9.59814 14.8861C9.40735 14.393 9.32062 13.8658 9.34333 13.3376C9.31997 12.8037 9.40845 12.2708 9.60314 11.7731C9.79783 11.2754 10.0944 10.8239 10.4738 10.4475C10.8532 10.0712 11.3071 9.77825 11.8064 9.58763C12.3057 9.39697 12.8393 9.3128 13.373 9.34049C13.9013 9.32209 14.4278 9.41312 14.9193 9.60791C15.4108 9.80269 15.8567 10.097 16.229 10.4724C16.6013 10.8478 16.892 11.2961 17.0828 11.7891C17.2736 12.2822 17.3603 12.8094 17.3376 13.3376C17.361 13.8715 17.2725 14.4044 17.0778 14.9021C16.8831 15.3999 16.5865 15.8514 16.2071 16.2277C15.8277 16.6041 15.3738 16.897 14.8746 17.0876C14.3753 17.2783 13.8417 17.3624 13.308 17.3348ZM44.0177 44.0149H36.4134V31.3411C36.4134 28.3188 35.3409 26.239 32.6437 26.239C31.8059 26.2462 30.9906 26.5123 30.3101 27.0011C29.6293 27.4898 29.1165 28.1772 28.8415 28.9688C28.6303 29.5622 28.5419 30.1923 28.5816 30.8211V44.0149H21.1073V20.8445H28.5816V24.0942C29.2461 22.8733 30.235 21.8601 31.4394 21.1659C32.6437 20.4721 34.0164 20.1247 35.4059 20.162C40.313 20.162 44.0177 23.4118 44.0177 30.3337V44.0149Z" fill="#E20707"/>
</svg>
