<svg width="52" height="52" viewBox="0 0 52 52" fill="none" xmlns="http://www.w3.org/2000/svg">
<path d="M47.8356 0.00466347H4.45209C3.89292 -0.0215291 3.33403 0.0628015 2.80748 0.252877C2.28093 0.442952 1.79705 0.735001 1.3835 1.11229C0.969972 1.48961 0.634895 1.9448 0.397504 2.45175C0.160113 2.95874 0.0250227 3.50755 0 4.06679V47.5479C0.032757 48.7181 0.512347 49.8318 1.34027 50.6595C2.1682 51.4875 3.28168 51.9672 4.45209 52H47.8356C48.9733 51.9493 50.0461 51.4547 50.8237 50.6224C51.6014 49.7902 52.0219 48.6866 51.9952 47.5479V4.06679C52.0047 3.52247 51.9026 2.98201 51.6956 2.4785C51.4886 1.97502 51.1809 1.51912 50.7912 1.13874C50.4019 0.758399 49.9388 0.461638 49.4306 0.266623C48.9223 0.0716082 48.3796 -0.017532 47.8356 0.00466347ZM16.2485 43.3558H8.67671V20.1854H16.2485V43.3558ZM12.6413 16.6756C12.113 16.6941 11.5865 16.603 11.095 16.4082C10.6035 16.2134 10.1576 15.9191 9.78528 15.5437C9.41296 15.1684 9.12227 14.7201 8.93151 14.227C8.74072 13.7339 8.65399 13.2067 8.67671 12.6785C8.65334 12.1446 8.74183 11.6117 8.93652 11.114C9.13121 10.6163 9.42778 10.1648 9.80718 9.78841C10.1866 9.41203 10.6405 9.11914 11.1398 8.92851C11.639 8.73785 12.1726 8.65368 12.7063 8.68137C13.2347 8.66298 13.7612 8.754 14.2527 8.94879C14.7442 9.14357 15.1901 9.4379 15.5624 9.81327C15.9347 10.1886 16.2254 10.6369 16.4162 11.13C16.607 11.6231 16.6937 12.1503 16.671 12.6785C16.6943 13.2124 16.6058 13.7453 16.4112 14.243C16.2165 14.7407 15.9199 15.1922 15.5405 15.5686C15.1611 15.945 14.7072 16.2379 14.2079 16.4285C13.7086 16.6192 13.175 16.7033 12.6413 16.6756ZM43.351 43.3558H35.7467V30.682C35.7467 27.6597 34.6743 25.5799 31.9771 25.5799C31.1393 25.5871 30.3239 25.8532 29.6435 26.342C28.9626 26.8307 28.4498 27.518 28.1749 28.3097C27.9637 28.9031 27.8753 29.5332 27.9149 30.162V43.3558H20.4406V20.1854H27.9149V23.4351C28.5795 22.2142 29.5684 21.2009 30.7727 20.5068C31.9771 19.813 33.3497 19.4655 34.7393 19.5029C39.6464 19.5029 43.351 22.7527 43.351 29.6745V43.3558Z" fill="#E20707"/>
</svg>
