<svg width="42" height="42" viewBox="0 0 42 42" fill="none" xmlns="http://www.w3.org/2000/svg">
<path d="M20.8238 41.6478C32.1953 41.6478 41.6478 32.2158 41.6478 20.8239C41.6478 9.45243 32.1749 0 20.8034 0C9.41149 0 0 9.45243 0 20.8239C0 32.2158 9.43196 41.6478 20.8238 41.6478ZM20.8238 38.1771C11.1877 38.1771 3.49096 30.46 3.49096 20.8239C3.49096 11.2081 11.1673 3.47066 20.8034 3.47066C30.4191 3.47066 38.1566 11.2081 38.1771 20.8239C38.1976 30.46 30.4396 38.1771 20.8238 38.1771ZM20.8238 19.6806C23.784 19.701 26.1523 17.1695 26.1523 13.8418C26.1523 10.7386 23.784 8.14584 20.8238 8.14584C17.8635 8.14584 15.4953 10.7386 15.4953 13.8418C15.4953 17.1695 17.8635 19.6602 20.8238 19.6806ZM11.3101 31.2563H30.317C31.1336 31.2563 31.542 30.705 31.542 29.9701C31.542 27.6835 28.1122 21.7835 20.8238 21.7835C13.5355 21.7835 10.1056 27.6835 10.1056 29.9701C10.1056 30.705 10.514 31.2563 11.3101 31.2563Z" fill="#E20707"/>
</svg>
