<svg width="139" height="25" viewBox="0 0 139 25" fill="none" xmlns="http://www.w3.org/2000/svg">
<path d="M90.8281 10.4219H93.3906C94.0469 10.4219 94.5833 10.3073 95 10.0781C95.4271 9.83854 95.7448 9.50521 95.9531 9.07812C96.1615 8.64062 96.2656 8.125 96.2656 7.53125C96.2656 7.07292 96.1667 6.65104 95.9688 6.26562C95.7812 5.88021 95.4896 5.57292 95.0938 5.34375C94.6979 5.10417 94.1927 4.98438 93.5781 4.98438C93.1615 4.98438 92.7552 5.07292 92.3594 5.25C91.9635 5.41667 91.6354 5.65625 91.375 5.96875C91.125 6.28125 91 6.66146 91 7.10938H85.7188C85.7188 5.81771 86.0729 4.71354 86.7812 3.79688C87.5 2.86979 88.4427 2.16146 89.6094 1.67188C90.7865 1.17188 92.0521 0.921875 93.4062 0.921875C95.0208 0.921875 96.4375 1.17188 97.6562 1.67188C98.875 2.16146 99.823 2.89062 100.5 3.85938C101.188 4.81771 101.531 6.00521 101.531 7.42188C101.531 8.20312 101.349 8.9375 100.984 9.625C100.62 10.3125 100.109 10.9167 99.453 11.4375C98.7969 11.9583 98.026 12.3698 97.1406 12.6719C96.2656 12.9635 95.3073 13.1094 94.2656 13.1094H90.8281V10.4219ZM90.8281 14.3438V11.7188H94.2656C95.401 11.7188 96.4375 11.849 97.375 12.1094C98.3125 12.3594 99.12 12.7344 99.797 13.2344C100.474 13.7344 100.995 14.3542 101.359 15.0938C101.724 15.8229 101.906 16.6615 101.906 17.6094C101.906 18.6719 101.693 19.6198 101.266 20.4531C100.839 21.2865 100.24 21.9896 99.469 22.5625C98.6979 23.1354 97.7969 23.5729 96.7656 23.875C95.7344 24.1667 94.6146 24.3125 93.4062 24.3125C92.4583 24.3125 91.5104 24.1875 90.5625 23.9375C89.6146 23.6771 88.75 23.2812 87.9688 22.75C87.1875 22.2083 86.5573 21.5208 86.0781 20.6875C85.6094 19.8438 85.375 18.8385 85.375 17.6719H90.6562C90.6562 18.151 90.7865 18.5885 91.0469 18.9844C91.3177 19.3698 91.6771 19.6771 92.125 19.9062C92.5729 20.1354 93.0573 20.25 93.5781 20.25C94.224 20.25 94.7708 20.1302 95.2188 19.8906C95.6771 19.6406 96.026 19.3073 96.2656 18.8906C96.5052 18.474 96.625 18.0104 96.625 17.5C96.625 16.7292 96.4948 16.1146 96.2344 15.6562C95.9844 15.1979 95.6146 14.8646 95.125 14.6562C94.6458 14.4479 94.0677 14.3438 93.3906 14.3438H90.8281ZM116.453 0.921875H117.297V5.0625H117.016C116.005 5.0625 115.057 5.20312 114.172 5.48438C113.297 5.76562 112.526 6.19271 111.859 6.76562C111.203 7.32812 110.688 8.04167 110.312 8.90625C109.948 9.77083 109.766 10.7865 109.766 11.9531V15.9375C109.766 16.6667 109.828 17.3021 109.953 17.8438C110.078 18.3854 110.266 18.8333 110.516 19.1875C110.766 19.5417 111.073 19.8073 111.438 19.9844C111.812 20.1615 112.245 20.25 112.734 20.25C113.141 20.25 113.516 20.1562 113.859 19.9688C114.203 19.7812 114.5 19.5156 114.75 19.1719C115.01 18.8281 115.208 18.4271 115.344 17.9688C115.479 17.5104 115.547 17.0104 115.547 16.4688C115.547 15.8854 115.474 15.3594 115.328 14.8906C115.182 14.4219 114.974 14.026 114.703 13.7031C114.443 13.3698 114.125 13.1198 113.75 12.9531C113.385 12.776 112.984 12.6875 112.547 12.6875C111.88 12.6875 111.312 12.8385 110.844 13.1406C110.385 13.4323 110.036 13.8073 109.797 14.2656C109.568 14.724 109.453 15.1875 109.453 15.6562L108.188 14.375C108.167 13.75 108.286 13.1042 108.547 12.4375C108.807 11.7708 109.198 11.151 109.719 10.5781C110.24 10.0052 110.891 9.54167 111.672 9.1875C112.453 8.83333 113.359 8.65625 114.391 8.65625C115.432 8.65625 116.349 8.85417 117.141 9.25C117.943 9.64583 118.615 10.1979 119.156 10.9062C119.708 11.6146 120.125 12.4427 120.406 13.3906C120.688 14.3385 120.828 15.3646 120.828 16.4688C120.828 17.5833 120.63 18.6198 120.234 19.5781C119.849 20.526 119.302 21.3542 118.594 22.0625C117.885 22.7708 117.047 23.3229 116.078 23.7188C115.109 24.1146 114.042 24.3125 112.875 24.3125C111.677 24.3125 110.568 24.1094 109.547 23.7031C108.536 23.2865 107.651 22.6875 106.891 21.9062C106.141 21.1146 105.552 20.151 105.125 19.0156C104.708 17.8802 104.5 16.5938 104.5 15.1562V13.2344C104.5 11.2865 104.818 9.55208 105.453 8.03125C106.099 6.51042 106.974 5.22396 108.078 4.17188C109.193 3.10938 110.469 2.30208 111.906 1.75C113.344 1.19792 114.859 0.921875 116.453 0.921875ZM138.953 10.5469V14.7031C138.953 16.3385 138.76 17.7604 138.375 18.9688C138 20.1771 137.458 21.1771 136.75 21.9688C136.052 22.7604 135.219 23.349 134.25 23.7344C133.281 24.1198 132.214 24.3125 131.047 24.3125C130.109 24.3125 129.234 24.1927 128.422 23.9531C127.609 23.7031 126.875 23.3281 126.219 22.8281C125.573 22.3177 125.016 21.6823 124.547 20.9219C124.078 20.1615 123.719 19.2656 123.469 18.2344C123.219 17.1927 123.094 16.0156 123.094 14.7031V10.5469C123.094 8.90104 123.281 7.47917 123.656 6.28125C124.042 5.07292 124.589 4.07292 125.297 3.28125C126.005 2.48958 126.844 1.90104 127.812 1.51562C128.781 1.13021 129.849 0.9375 131.016 0.9375C131.953 0.9375 132.823 1.0625 133.625 1.3125C134.438 1.55208 135.172 1.92708 135.828 2.4375C136.484 2.9375 137.042 3.56771 137.5 4.32812C137.969 5.08854 138.328 5.98958 138.578 7.03125C138.828 8.0625 138.953 9.23438 138.953 10.5469ZM133.688 15.3438V9.875C133.688 9.14583 133.646 8.51042 133.562 7.96875C133.49 7.42708 133.375 6.96875 133.219 6.59375C133.073 6.21875 132.891 5.91667 132.672 5.6875C132.453 5.44792 132.203 5.27604 131.922 5.17188C131.651 5.05729 131.349 5 131.016 5C130.599 5 130.224 5.08854 129.891 5.26562C129.568 5.43229 129.292 5.70312 129.062 6.07812C128.833 6.45312 128.656 6.95312 128.531 7.57812C128.417 8.20312 128.359 8.96875 128.359 9.875V15.3438C128.359 16.0833 128.396 16.7292 128.469 17.2812C128.552 17.8229 128.667 18.2865 128.812 18.6719C128.969 19.0469 129.156 19.3542 129.375 19.5938C129.594 19.8229 129.844 19.9896 130.125 20.0938C130.406 20.1979 130.714 20.25 131.047 20.25C131.453 20.25 131.818 20.1667 132.141 20C132.464 19.8333 132.74 19.5625 132.969 19.1875C133.208 18.8021 133.385 18.2969 133.5 17.6719C133.625 17.0365 133.688 16.2604 133.688 15.3438Z" fill="url(#paint0_linear_29_17)"/>
<path d="M78.4382 10.8693H74.1769C74.1201 10.4318 74.0036 10.0369 73.8274 9.68466C73.6513 9.33239 73.4184 9.03126 73.1286 8.78126C72.8388 8.53126 72.4951 8.34092 72.0973 8.21023C71.7053 8.07387 71.2706 8.00569 70.7934 8.00569C69.9468 8.00569 69.2166 8.21307 68.603 8.62785C67.995 9.04262 67.5263 9.64205 67.1968 10.4261C66.8729 11.2102 66.711 12.1591 66.711 13.2727C66.711 14.4318 66.8757 15.4034 67.2053 16.1875C67.5405 16.9659 68.0093 17.554 68.6115 17.9517C69.2195 18.3438 69.9382 18.5398 70.7678 18.5398C71.2337 18.5398 71.657 18.4801 72.0377 18.3608C72.424 18.2415 72.7621 18.0682 73.0519 17.8409C73.3473 17.608 73.5888 17.3267 73.7763 16.9972C73.9695 16.6619 74.103 16.2841 74.1769 15.8636L78.4382 15.8892C78.3644 16.6619 78.1399 17.4233 77.7649 18.1733C77.3956 18.9233 76.8871 19.608 76.2394 20.2273C75.5916 20.8409 74.8019 21.3296 73.87 21.6932C72.9439 22.0568 71.8814 22.2386 70.6825 22.2386C69.103 22.2386 67.6882 21.8921 66.4382 21.1989C65.1939 20.5 64.211 19.483 63.4894 18.1477C62.7678 16.8125 62.407 15.1875 62.407 13.2727C62.407 11.3523 62.7735 9.72444 63.5064 8.38921C64.2394 7.05398 65.2309 6.03978 66.4809 5.3466C67.7309 4.65341 69.1314 4.30682 70.6825 4.30682C71.7394 4.30682 72.7166 4.45455 73.6144 4.75001C74.5121 5.03978 75.3019 5.46591 75.9837 6.02841C76.6655 6.58523 77.2195 7.26989 77.6456 8.08239C78.0718 8.89489 78.336 9.82387 78.4382 10.8693Z" fill="#E20707"/>
<path d="M59.946 4.54547V22H55.7273V4.54547H59.946Z" fill="#E20707"/>
<path d="M49.3182 9.77841C49.2614 9.15341 49.0085 8.66762 48.5597 8.32103C48.1165 7.96876 47.483 7.79262 46.6591 7.79262C46.1136 7.79262 45.6591 7.86364 45.2955 8.00569C44.9318 8.14773 44.6591 8.34376 44.4773 8.59376C44.2954 8.83807 44.2017 9.11932 44.196 9.43751C44.1847 9.69887 44.2358 9.92898 44.3494 10.1278C44.4687 10.3267 44.6392 10.5028 44.8608 10.6563C45.0881 10.804 45.3608 10.9347 45.679 11.0483C45.9972 11.1619 46.3551 11.2614 46.7528 11.3466L48.2528 11.6875C49.1165 11.875 49.8778 12.125 50.5369 12.4375C51.2017 12.75 51.7585 13.1222 52.2074 13.554C52.6619 13.9858 53.0057 14.483 53.2386 15.0455C53.4716 15.608 53.5909 16.2386 53.5966 16.9375C53.5909 18.0398 53.3125 18.9858 52.7614 19.7756C52.2102 20.5653 51.4176 21.1705 50.3835 21.5909C49.3551 22.0114 48.1136 22.2216 46.6591 22.2216C45.1989 22.2216 43.9261 22.0028 42.8409 21.5653C41.7557 21.1278 40.9119 20.4631 40.3097 19.571C39.7074 18.679 39.3977 17.5511 39.3807 16.1875H43.4205C43.4545 16.75 43.6051 17.2188 43.8722 17.5938C44.1392 17.9688 44.5057 18.2528 44.9716 18.446C45.4432 18.6392 45.9886 18.7358 46.608 18.7358C47.1761 18.7358 47.6591 18.6591 48.0568 18.5057C48.4602 18.3523 48.7699 18.1392 48.9858 17.8665C49.2017 17.5938 49.3125 17.2813 49.3182 16.929C49.3125 16.5994 49.2102 16.3182 49.0114 16.0852C48.8125 15.8466 48.5057 15.6421 48.0909 15.4716C47.6818 15.2955 47.1591 15.1335 46.5227 14.9858L44.6989 14.5597C43.1875 14.2131 41.9972 13.6534 41.1278 12.8807C40.2585 12.1023 39.8267 11.0511 39.8324 9.72728C39.8267 8.64773 40.1165 7.70171 40.7017 6.88921C41.2869 6.07671 42.0966 5.44319 43.1307 4.98864C44.1648 4.5341 45.3437 4.30682 46.6676 4.30682C48.0199 4.30682 49.1932 4.53694 50.1875 4.99716C51.1875 5.45171 51.9631 6.09092 52.5142 6.91478C53.0653 7.73864 53.3466 8.69319 53.358 9.77841H49.3182Z" fill="#E20707"/>
<path d="M33.0291 4.54547H37.2394V15.804C37.2394 17.1051 36.9297 18.2387 36.3104 19.2046C35.6911 20.1648 34.8274 20.9091 33.7195 21.4375C32.6115 21.9602 31.3246 22.2216 29.8587 22.2216C28.3757 22.2216 27.0803 21.9602 25.9723 21.4375C24.8644 20.9091 24.0036 20.1648 23.3899 19.2046C22.7763 18.2387 22.4695 17.1051 22.4695 15.804V4.54547H26.6882V15.4375C26.6882 16.0398 26.8189 16.5767 27.0803 17.0483C27.3473 17.5199 27.7195 17.8892 28.1968 18.1563C28.674 18.4233 29.228 18.5568 29.8587 18.5568C30.4894 18.5568 31.0405 18.4233 31.5121 18.1563C31.9894 17.8892 32.3615 17.5199 32.6286 17.0483C32.8956 16.5767 33.0291 16.0398 33.0291 15.4375V4.54547Z" fill="#E20707"/>
<path d="M0.321045 4.54547H5.54548L9.97729 15.3523H10.1818L14.6137 4.54547H19.8381V22H15.7301V11.2784H15.5852L11.3921 21.8892H8.76707L4.57389 11.2188H4.429V22H0.321045V4.54547Z" fill="#E20707"/>
<defs>
<linearGradient id="paint0_linear_29_17" x1="130.036" y1="31" x2="16.9411" y2="-28.6442" gradientUnits="userSpaceOnUse">
<stop stop-color="#EA0000"/>
<stop offset="0.794" stop-color="#5BC6B3"/>
</linearGradient>
</defs>
</svg>
