<svg width="405" height="118" viewBox="0 0 405 118" fill="none" xmlns="http://www.w3.org/2000/svg">
<path d="M155.873 45.793V71H152.27V60.207H137.838V71H134.234V45.793H137.838V56.6035H152.27V45.793H155.873ZM177.846 63.4062H165.453V67.5371H177.846V71H165.453C164.984 71 164.539 70.9121 164.117 70.7363C163.695 70.5488 163.326 70.3027 163.01 69.998C162.705 69.6816 162.459 69.3125 162.271 68.8906C162.096 68.4688 162.008 68.0176 162.008 67.5371V55.7422C162.008 55.2617 162.096 54.8105 162.271 54.3887C162.459 53.9668 162.705 53.6035 163.01 53.2988C163.326 52.9824 163.695 52.7363 164.117 52.5605C164.539 52.373 164.984 52.2793 165.453 52.2793H174.383C174.863 52.2793 175.314 52.373 175.736 52.5605C176.158 52.7363 176.521 52.9824 176.826 53.2988C177.143 53.6035 177.389 53.9668 177.564 54.3887C177.752 54.8105 177.846 55.2617 177.846 55.7422V63.4062ZM165.453 55.7422V59.9434H174.383V55.7422H165.453ZM183.629 62.8262C183.629 62.3457 183.717 61.9004 183.893 61.4902C184.08 61.0684 184.326 60.6992 184.631 60.3828C184.947 60.0664 185.316 59.8203 185.738 59.6445C186.16 59.457 186.605 59.3633 187.074 59.3633H196.004V55.7422H184.701V52.2793H196.004C196.484 52.2793 196.936 52.373 197.357 52.5605C197.779 52.7363 198.143 52.9824 198.447 53.2988C198.764 53.6035 199.01 53.9668 199.186 54.3887C199.373 54.8105 199.467 55.2617 199.467 55.7422V71H196.004V67.8359C195.969 68.2695 195.852 68.6797 195.652 69.0664C195.453 69.4531 195.195 69.793 194.879 70.0859C194.574 70.3672 194.223 70.5898 193.824 70.7539C193.426 70.918 193.004 71 192.559 71H187.074C186.605 71 186.16 70.9121 185.738 70.7363C185.316 70.5488 184.947 70.3027 184.631 69.998C184.326 69.6816 184.08 69.3125 183.893 68.8906C183.717 68.4688 183.629 68.0176 183.629 67.5371V62.8262ZM187.074 67.5371H196.004V62.8262H187.074V67.5371ZM208.695 45.0723V71H205.25V45.0723H208.695ZM213.371 52.2793H217.941V46.5137H221.404V52.2793H227.557V55.7422H221.404V67.5371H227.557V71H221.404C220.936 71 220.49 70.9121 220.068 70.7363C219.646 70.5488 219.277 70.3027 218.961 69.998C218.645 69.6816 218.393 69.3125 218.205 68.8906C218.029 68.4688 217.941 68.0176 217.941 67.5371V55.7422H213.371V52.2793ZM249.898 71H246.436V55.7422H236.785V71H233.34V45.0723H236.785V55.584C236.809 55.127 236.914 54.6992 237.102 54.3008C237.289 53.8906 237.535 53.5391 237.84 53.2461C238.156 52.9414 238.52 52.707 238.93 52.543C239.34 52.3672 239.779 52.2793 240.248 52.2793H246.436C246.916 52.2793 247.367 52.373 247.789 52.5605C248.211 52.7363 248.574 52.9824 248.879 53.2988C249.195 53.6035 249.441 53.9668 249.617 54.3887C249.805 54.8105 249.898 55.2617 249.898 55.7422V71ZM277.971 45.793L287.691 71H284.088L281.855 65.1992H270.482L268.25 71H264.646L274.367 45.793H277.971ZM271.854 61.5957H280.467L276.178 50.4863L271.854 61.5957ZM295.303 52.2793V71H291.84V52.2793H295.303ZM291.664 45.0723H295.479V48.6758H291.664V45.0723ZM301.262 55.7422C301.262 55.2617 301.35 54.8105 301.525 54.3887C301.713 53.9668 301.959 53.6035 302.264 53.2988C302.58 52.9824 302.949 52.7363 303.371 52.5605C303.793 52.373 304.238 52.2793 304.707 52.2793H314.357V45.0723H317.82V71H314.357V67.8359C314.322 68.2695 314.205 68.6797 314.006 69.0664C313.807 69.4531 313.549 69.793 313.232 70.0859C312.928 70.3672 312.576 70.5898 312.178 70.7539C311.779 70.918 311.357 71 310.912 71H304.707C304.238 71 303.793 70.9121 303.371 70.7363C302.949 70.5488 302.58 70.3027 302.264 69.998C301.959 69.6816 301.713 69.3125 301.525 68.8906C301.35 68.4688 301.262 68.0176 301.262 67.5371V55.7422ZM304.707 67.5371H314.357V55.7422H304.707V67.5371ZM356.369 45.793V71H352.766V60.207H338.334V71H334.73V45.793H338.334V56.6035H352.766V45.793H356.369ZM362.504 52.2793H365.949V67.5371H375.6V52.2793H379.062V71H375.6V67.8359C375.564 68.2695 375.447 68.6797 375.248 69.0664C375.049 69.4531 374.791 69.793 374.475 70.0859C374.17 70.3672 373.818 70.5898 373.42 70.7539C373.021 70.918 372.6 71 372.154 71H365.949C365.48 71 365.035 70.9121 364.613 70.7363C364.191 70.5488 363.822 70.3027 363.506 69.998C363.201 69.6816 362.955 69.3125 362.768 68.8906C362.592 68.4688 362.504 68.0176 362.504 67.5371V52.2793ZM401.387 67.5371C401.387 68.0176 401.293 68.4688 401.105 68.8906C400.93 69.3125 400.684 69.6816 400.367 69.998C400.062 70.3027 399.699 70.5488 399.277 70.7363C398.855 70.9121 398.404 71 397.924 71H388.273C387.805 71 387.359 70.9121 386.938 70.7363C386.516 70.5488 386.146 70.3027 385.83 69.998C385.525 69.6816 385.279 69.3125 385.092 68.8906C384.916 68.4688 384.828 68.0176 384.828 67.5371V45.0723H388.273V55.584C388.297 55.127 388.402 54.6992 388.59 54.3008C388.777 53.8906 389.023 53.5391 389.328 53.2461C389.645 52.9414 390.008 52.707 390.418 52.543C390.828 52.3672 391.268 52.2793 391.736 52.2793H397.924C398.404 52.2793 398.855 52.373 399.277 52.5605C399.699 52.7363 400.062 52.9824 400.367 53.2988C400.684 53.6035 400.93 53.9668 401.105 54.3887C401.293 54.8105 401.387 55.2617 401.387 55.7422V67.5371ZM388.273 55.7422V67.5371H397.924V55.7422H388.273Z" fill="#0AB3A8"/>
<circle cx="59" cy="59" r="59" fill="url(#paint0_linear_7_37)"/>
<path d="M40.136 74.808C39.784 74.904 39.224 75 38.456 75.096C37.72 75.192 36.984 75.24 36.248 75.24C35.512 75.24 34.856 75.176 34.28 75.048C33.736 74.952 33.272 74.76 32.888 74.472C32.504 74.184 32.216 73.784 32.024 73.272C31.832 72.76 31.736 72.088 31.736 71.256V63.768H22.52V74.808C22.168 74.904 21.608 75 20.84 75.096C20.104 75.192 19.368 75.24 18.632 75.24C17.896 75.24 17.24 75.176 16.664 75.048C16.12 74.952 15.656 74.76 15.272 74.472C14.888 74.184 14.6 73.784 14.408 73.272C14.216 72.76 14.12 72.088 14.12 71.256V45.912C14.472 45.848 15.032 45.768 15.8 45.672C16.568 45.544 17.304 45.48 18.008 45.48C18.744 45.48 19.384 45.544 19.928 45.672C20.504 45.768 20.984 45.96 21.368 46.248C21.752 46.536 22.04 46.936 22.232 47.448C22.424 47.96 22.52 48.632 22.52 49.464V57.144H31.736V45.912C32.088 45.848 32.648 45.768 33.416 45.672C34.184 45.544 34.92 45.48 35.624 45.48C36.36 45.48 37 45.544 37.544 45.672C38.12 45.768 38.6 45.96 38.984 46.248C39.368 46.536 39.656 46.936 39.848 47.448C40.04 47.96 40.136 48.632 40.136 49.464V74.808ZM52.562 46.776C53.106 46.456 53.922 46.152 55.01 45.864C56.13 45.576 57.25 45.432 58.37 45.432C59.97 45.432 61.378 45.672 62.594 46.152C63.842 46.6 64.642 47.32 64.994 48.312C65.57 49.976 66.194 51.912 66.866 54.12C67.538 56.328 68.21 58.616 68.882 60.984C69.554 63.32 70.21 65.64 70.85 67.944C71.49 70.216 72.05 72.232 72.53 73.992C72.146 74.44 71.57 74.792 70.802 75.048C70.034 75.336 69.122 75.48 68.066 75.48C67.298 75.48 66.642 75.416 66.098 75.288C65.586 75.16 65.154 74.968 64.802 74.712C64.482 74.456 64.21 74.12 63.986 73.704C63.794 73.288 63.618 72.808 63.458 72.264L62.594 68.952H53.906C53.65 69.912 53.394 70.904 53.138 71.928C52.882 72.952 52.626 73.944 52.37 74.904C51.922 75.064 51.442 75.192 50.93 75.288C50.45 75.416 49.858 75.48 49.154 75.48C47.522 75.48 46.306 75.208 45.506 74.664C44.738 74.088 44.354 73.304 44.354 72.312C44.354 71.864 44.418 71.416 44.546 70.968C44.674 70.52 44.818 69.992 44.978 69.384C45.202 68.52 45.506 67.448 45.89 66.168C46.306 64.888 46.754 63.512 47.234 62.04C47.714 60.536 48.226 59 48.77 57.432C49.314 55.864 49.826 54.392 50.306 53.016C50.786 51.608 51.218 50.36 51.602 49.272C52.018 48.184 52.338 47.352 52.562 46.776ZM58.322 52.968C57.874 54.312 57.362 55.816 56.786 57.48C56.242 59.112 55.746 60.776 55.298 62.472H61.25C60.802 60.744 60.338 59.064 59.858 57.432C59.41 55.768 58.994 54.28 58.61 52.968H58.322ZM102.48 74.808C102.128 74.904 101.568 75 100.8 75.096C100.064 75.192 99.3278 75.24 98.5918 75.24C97.8558 75.24 97.1998 75.176 96.6238 75.048C96.0798 74.952 95.6158 74.76 95.2318 74.472C94.8478 74.184 94.5598 73.784 94.3678 73.272C94.1758 72.76 94.0798 72.088 94.0798 71.256V63.768H84.8638V74.808C84.5118 74.904 83.9518 75 83.1838 75.096C82.4478 75.192 81.7118 75.24 80.9758 75.24C80.2398 75.24 79.5838 75.176 79.0078 75.048C78.4638 74.952 77.9998 74.76 77.6158 74.472C77.2318 74.184 76.9438 73.784 76.7518 73.272C76.5598 72.76 76.4638 72.088 76.4638 71.256V45.912C76.8158 45.848 77.3758 45.768 78.1438 45.672C78.9118 45.544 79.6478 45.48 80.3518 45.48C81.0878 45.48 81.7278 45.544 82.2718 45.672C82.8478 45.768 83.3278 45.96 83.7118 46.248C84.0958 46.536 84.3838 46.936 84.5758 47.448C84.7678 47.96 84.8638 48.632 84.8638 49.464V57.144H94.0798V45.912C94.4318 45.848 94.9918 45.768 95.7598 45.672C96.5278 45.544 97.2638 45.48 97.9678 45.48C98.7038 45.48 99.3438 45.544 99.8878 45.672C100.464 45.768 100.944 45.96 101.328 46.248C101.712 46.536 102 46.936 102.192 47.448C102.384 47.96 102.48 48.632 102.48 49.464V74.808Z" fill="#F5F5F5"/>
<defs>
<linearGradient id="paint0_linear_7_37" x1="92.9697" y1="11.6212" x2="29.5" y2="110.848" gradientUnits="userSpaceOnUse">
<stop offset="0.0696303" stop-color="#26EEA0" stop-opacity="0.67"/>
<stop offset="0.9998" stop-color="#208285"/>
<stop offset="0.9999" stop-color="#59CAEE"/>
<stop offset="1" stop-color="#145B7D"/>
</linearGradient>
</defs>
</svg>
