<svg width="389" height="118" viewBox="0 0 389 118" fill="none" xmlns="http://www.w3.org/2000/svg">
<path d="M153.608 72.692H149.72V60.704H138.668V72.692H134.744V45.836H138.668V57.032H149.72V45.836H153.608V72.692ZM175.156 64.232H163.024C163.096 65.96 163.564 67.304 164.428 68.264C165.316 69.296 166.54 69.812 168.1 69.812C170.26 69.812 172.168 69.344 173.824 68.408V72.044C171.904 72.764 169.96 73.124 167.992 73.124C164.896 73.124 162.592 72.14 161.08 70.172C159.76 68.42 159.1 65.972 159.1 62.828C159.1 59.804 159.832 57.344 161.296 55.448C162.76 53.552 164.728 52.604 167.2 52.604C169.96 52.604 172.024 53.588 173.392 55.556C174.568 57.236 175.156 59.456 175.156 62.216V64.232ZM171.232 60.812C171.232 59.468 170.884 58.34 170.188 57.428C169.468 56.468 168.52 55.988 167.344 55.988C166.144 55.988 165.124 56.48 164.284 57.464C163.444 58.448 163.024 59.564 163.024 60.812H171.232ZM190.237 72.728V70.82C189.061 72.356 187.369 73.124 185.161 73.124C182.761 73.124 180.985 72.452 179.833 71.108C179.017 70.124 178.609 68.924 178.609 67.508C178.609 62.612 182.209 60.164 189.409 60.164H189.949V59.516C189.949 57.164 188.857 55.988 186.673 55.988C184.705 55.988 182.761 56.504 180.841 57.536V54.008C182.665 53.072 184.681 52.604 186.889 52.604C189.193 52.604 190.873 53.144 191.929 54.224C193.057 55.4 193.621 57.224 193.621 59.696V68.084C193.621 70.292 193.693 71.84 193.837 72.728H190.237ZM189.949 63.512H189.193C187.321 63.512 185.881 63.68 184.873 64.016C183.265 64.544 182.461 65.588 182.461 67.148C182.461 68.876 183.457 69.74 185.449 69.74C188.449 69.74 189.949 67.916 189.949 64.268V63.512ZM203.087 72.548H199.163V43.892H203.087V72.548ZM217.883 72.548C216.971 72.932 215.939 73.124 214.787 73.124C212.507 73.124 211.031 72.512 210.359 71.288C209.855 70.472 209.603 68.9 209.603 66.572V56.384H206.507V52.82H209.603V48.536L213.491 47.276V52.82H217.307V56.384H213.491V67.58C213.491 68.972 214.127 69.668 215.399 69.668C216.239 69.668 216.971 69.512 217.595 69.2L217.883 72.548ZM237.333 72.548H233.481V61.028C233.481 59.276 233.277 58.016 232.869 57.248C232.317 56.336 231.357 55.88 229.989 55.88C228.477 55.88 227.313 56.504 226.497 57.752C225.801 58.88 225.453 60.296 225.453 62V72.548H221.601V43.892H225.453V54.728C225.933 53.936 226.629 53.336 227.541 52.928C228.429 52.496 229.377 52.28 230.385 52.28C232.905 52.28 234.717 53.048 235.821 54.584C236.829 55.952 237.333 58.052 237.333 60.884V72.548ZM268.283 62.108L263.927 51.02L259.535 62.108H268.283ZM276.635 72.692H272.459L269.723 65.816H258.059L255.287 72.692H251.147L262.091 45.836H266.015L276.635 72.692ZM284.125 72.692H280.273V52.532H284.125V72.692ZM284.125 49.076H280.273V44.576H284.125V49.076ZM297.329 55.7C295.697 55.7 294.485 56.432 293.693 57.896C293.021 59.096 292.685 60.728 292.685 62.792C292.685 67.376 294.233 69.668 297.329 69.668C298.817 69.668 299.993 68.924 300.857 67.436C301.553 66.164 301.901 64.58 301.901 62.684C301.901 60.788 301.553 59.204 300.857 57.932C300.017 56.444 298.841 55.7 297.329 55.7ZM305.537 72.728H301.901V70.928C300.701 72.416 299.057 73.16 296.969 73.16C294.353 73.16 292.325 72.188 290.885 70.244C289.541 68.348 288.869 65.864 288.869 62.792C288.869 59.624 289.493 57.128 290.741 55.304C292.109 53.264 294.185 52.244 296.969 52.244C298.889 52.244 300.533 53.036 301.901 54.62V43.82H305.537V72.728ZM341.167 72.692H337.279V60.704H326.227V72.692H322.303V45.836H326.227V57.032H337.279V45.836H341.167V72.692ZM359.979 72.728V70.748C358.683 72.332 356.979 73.124 354.867 73.124C352.515 73.124 350.727 72.416 349.503 71C348.423 69.68 347.883 67.904 347.883 65.672V53.072H351.735V64.952C351.735 68.144 352.899 69.74 355.227 69.74C356.787 69.74 357.975 69.152 358.791 67.976C359.439 67.016 359.763 65.708 359.763 64.052V53.072H363.579V67.76C363.579 69.536 363.651 71.192 363.795 72.728H359.979ZM377.923 55.628C376.411 55.628 375.235 56.372 374.395 57.86C373.699 59.132 373.351 60.716 373.351 62.612C373.351 64.46 373.711 66.032 374.431 67.328C375.247 68.792 376.411 69.524 377.923 69.524C381.019 69.524 382.567 67.244 382.567 62.684C382.567 57.98 381.019 55.628 377.923 55.628ZM373.351 43.892V54.476C374.815 52.94 376.471 52.172 378.319 52.172C381.079 52.172 383.155 53.192 384.547 55.232C385.795 57.008 386.419 59.492 386.419 62.684C386.419 65.78 385.747 68.252 384.403 70.1C382.915 72.044 380.887 73.016 378.319 73.016C376.135 73.016 374.479 72.308 373.351 70.892V72.548H369.715V43.892H373.351Z" fill="#04D5F2"/>
<circle cx="59" cy="59" r="59" fill="url(#paint0_linear_5_23)"/>
<path d="M22.872 79H18.36V45.4H22.872V59.512H37.464V45.4H41.976V79H37.464V63.736H22.872V79ZM52.4801 79H48.2081V57.88C48.2081 54.424 49.3121 51.48 51.5201 49.048C53.7601 46.616 56.6401 45.4 60.1601 45.4H71.1521V79H66.6401V49.624H60.1601C57.8241 49.624 55.9521 50.312 54.5441 51.688C53.1681 53.064 52.4801 55.256 52.4801 58.264V62.344C54.2721 60.456 56.8321 59.512 60.1601 59.512H64.5281V63.736H60.1601C58.3041 63.736 56.7841 63.96 55.6001 64.408C54.4481 64.856 53.4081 65.624 52.4801 66.712V79ZM82.4033 79H77.8913V45.4H82.4033V59.512H96.9953V45.4H101.507V79H96.9953V63.736H82.4033V79Z" fill="#04A7F2" fill-opacity="0.4"/>
<path d="M21.872 76H17.36V42.4H21.872V56.512H36.464V42.4H40.976V76H36.464V60.736H21.872V76ZM51.4801 76H47.2081V54.88C47.2081 51.424 48.3121 48.48 50.5201 46.048C52.7601 43.616 55.6401 42.4 59.1601 42.4H70.1521V76H65.6401V46.624H59.1601C56.8241 46.624 54.9521 47.312 53.5441 48.688C52.1681 50.064 51.4801 52.256 51.4801 55.264V59.344C53.2721 57.456 55.8321 56.512 59.1601 56.512H63.5281V60.736H59.1601C57.3041 60.736 55.7841 60.96 54.6001 61.408C53.4481 61.856 52.4081 62.624 51.4801 63.712V76ZM81.4033 76H76.8913V42.4H81.4033V56.512H95.9953V42.4H100.507V76H95.9953V60.736H81.4033V76Z" fill="#F5F5F5"/>
<defs>
<linearGradient id="paint0_linear_5_23" x1="92.9697" y1="11.6212" x2="29.5" y2="110.848" gradientUnits="userSpaceOnUse">
<stop offset="0.0696303" stop-color="#26EEA0" stop-opacity="0.67"/>
<stop offset="0.495" stop-color="#19DFE6"/>
<stop offset="0.9999" stop-color="#59CAEE"/>
<stop offset="1" stop-color="#04A6F4"/>
</linearGradient>
</defs>
</svg>
