<svg width="389" height="118" viewBox="0 0 389 118" fill="none" xmlns="http://www.w3.org/2000/svg">
<path d="M153.608 72.692H149.72V60.704H138.668V72.692H134.744V45.836H138.668V57.032H149.72V45.836H153.608V72.692ZM175.156 64.232H163.024C163.096 65.96 163.564 67.304 164.428 68.264C165.316 69.296 166.54 69.812 168.1 69.812C170.26 69.812 172.168 69.344 173.824 68.408V72.044C171.904 72.764 169.96 73.124 167.992 73.124C164.896 73.124 162.592 72.14 161.08 70.172C159.76 68.42 159.1 65.972 159.1 62.828C159.1 59.804 159.832 57.344 161.296 55.448C162.76 53.552 164.728 52.604 167.2 52.604C169.96 52.604 172.024 53.588 173.392 55.556C174.568 57.236 175.156 59.456 175.156 62.216V64.232ZM171.232 60.812C171.232 59.468 170.884 58.34 170.188 57.428C169.468 56.468 168.52 55.988 167.344 55.988C166.144 55.988 165.124 56.48 164.284 57.464C163.444 58.448 163.024 59.564 163.024 60.812H171.232ZM190.237 72.728V70.82C189.061 72.356 187.369 73.124 185.161 73.124C182.761 73.124 180.985 72.452 179.833 71.108C179.017 70.124 178.609 68.924 178.609 67.508C178.609 62.612 182.209 60.164 189.409 60.164H189.949V59.516C189.949 57.164 188.857 55.988 186.673 55.988C184.705 55.988 182.761 56.504 180.841 57.536V54.008C182.665 53.072 184.681 52.604 186.889 52.604C189.193 52.604 190.873 53.144 191.929 54.224C193.057 55.4 193.621 57.224 193.621 59.696V68.084C193.621 70.292 193.693 71.84 193.837 72.728H190.237ZM189.949 63.512H189.193C187.321 63.512 185.881 63.68 184.873 64.016C183.265 64.544 182.461 65.588 182.461 67.148C182.461 68.876 183.457 69.74 185.449 69.74C188.449 69.74 189.949 67.916 189.949 64.268V63.512ZM203.087 72.548H199.163V43.892H203.087V72.548ZM217.883 72.548C216.971 72.932 215.939 73.124 214.787 73.124C212.507 73.124 211.031 72.512 210.359 71.288C209.855 70.472 209.603 68.9 209.603 66.572V56.384H206.507V52.82H209.603V48.536L213.491 47.276V52.82H217.307V56.384H213.491V67.58C213.491 68.972 214.127 69.668 215.399 69.668C216.239 69.668 216.971 69.512 217.595 69.2L217.883 72.548ZM237.333 72.548H233.481V61.028C233.481 59.276 233.277 58.016 232.869 57.248C232.317 56.336 231.357 55.88 229.989 55.88C228.477 55.88 227.313 56.504 226.497 57.752C225.801 58.88 225.453 60.296 225.453 62V72.548H221.601V43.892H225.453V54.728C225.933 53.936 226.629 53.336 227.541 52.928C228.429 52.496 229.377 52.28 230.385 52.28C232.905 52.28 234.717 53.048 235.821 54.584C236.829 55.952 237.333 58.052 237.333 60.884V72.548ZM268.283 62.108L263.927 51.02L259.535 62.108H268.283ZM276.635 72.692H272.459L269.723 65.816H258.059L255.287 72.692H251.147L262.091 45.836H266.015L276.635 72.692ZM284.125 72.692H280.273V52.532H284.125V72.692ZM284.125 49.076H280.273V44.576H284.125V49.076ZM297.329 55.7C295.697 55.7 294.485 56.432 293.693 57.896C293.021 59.096 292.685 60.728 292.685 62.792C292.685 67.376 294.233 69.668 297.329 69.668C298.817 69.668 299.993 68.924 300.857 67.436C301.553 66.164 301.901 64.58 301.901 62.684C301.901 60.788 301.553 59.204 300.857 57.932C300.017 56.444 298.841 55.7 297.329 55.7ZM305.537 72.728H301.901V70.928C300.701 72.416 299.057 73.16 296.969 73.16C294.353 73.16 292.325 72.188 290.885 70.244C289.541 68.348 288.869 65.864 288.869 62.792C288.869 59.624 289.493 57.128 290.741 55.304C292.109 53.264 294.185 52.244 296.969 52.244C298.889 52.244 300.533 53.036 301.901 54.62V43.82H305.537V72.728ZM341.167 72.692H337.279V60.704H326.227V72.692H322.303V45.836H326.227V57.032H337.279V45.836H341.167V72.692ZM359.979 72.728V70.748C358.683 72.332 356.979 73.124 354.867 73.124C352.515 73.124 350.727 72.416 349.503 71C348.423 69.68 347.883 67.904 347.883 65.672V53.072H351.735V64.952C351.735 68.144 352.899 69.74 355.227 69.74C356.787 69.74 357.975 69.152 358.791 67.976C359.439 67.016 359.763 65.708 359.763 64.052V53.072H363.579V67.76C363.579 69.536 363.651 71.192 363.795 72.728H359.979ZM377.923 55.628C376.411 55.628 375.235 56.372 374.395 57.86C373.699 59.132 373.351 60.716 373.351 62.612C373.351 64.46 373.711 66.032 374.431 67.328C375.247 68.792 376.411 69.524 377.923 69.524C381.019 69.524 382.567 67.244 382.567 62.684C382.567 57.98 381.019 55.628 377.923 55.628ZM373.351 43.892V54.476C374.815 52.94 376.471 52.172 378.319 52.172C381.079 52.172 383.155 53.192 384.547 55.232C385.795 57.008 386.419 59.492 386.419 62.684C386.419 65.78 385.747 68.252 384.403 70.1C382.915 72.044 380.887 73.016 378.319 73.016C376.135 73.016 374.479 72.308 373.351 70.892V72.548H369.715V43.892H373.351Z" fill="#0AB3A8"/>
<circle cx="59" cy="59" r="59" fill="url(#paint0_linear_7_37)"/>
<path d="M40.136 74.808C39.784 74.904 39.224 75 38.456 75.096C37.72 75.192 36.984 75.24 36.248 75.24C35.512 75.24 34.856 75.176 34.28 75.048C33.736 74.952 33.272 74.76 32.888 74.472C32.504 74.184 32.216 73.784 32.024 73.272C31.832 72.76 31.736 72.088 31.736 71.256V63.768H22.52V74.808C22.168 74.904 21.608 75 20.84 75.096C20.104 75.192 19.368 75.24 18.632 75.24C17.896 75.24 17.24 75.176 16.664 75.048C16.12 74.952 15.656 74.76 15.272 74.472C14.888 74.184 14.6 73.784 14.408 73.272C14.216 72.76 14.12 72.088 14.12 71.256V45.912C14.472 45.848 15.032 45.768 15.8 45.672C16.568 45.544 17.304 45.48 18.008 45.48C18.744 45.48 19.384 45.544 19.928 45.672C20.504 45.768 20.984 45.96 21.368 46.248C21.752 46.536 22.04 46.936 22.232 47.448C22.424 47.96 22.52 48.632 22.52 49.464V57.144H31.736V45.912C32.088 45.848 32.648 45.768 33.416 45.672C34.184 45.544 34.92 45.48 35.624 45.48C36.36 45.48 37 45.544 37.544 45.672C38.12 45.768 38.6 45.96 38.984 46.248C39.368 46.536 39.656 46.936 39.848 47.448C40.04 47.96 40.136 48.632 40.136 49.464V74.808ZM52.562 46.776C53.106 46.456 53.922 46.152 55.01 45.864C56.13 45.576 57.25 45.432 58.37 45.432C59.97 45.432 61.378 45.672 62.594 46.152C63.842 46.6 64.642 47.32 64.994 48.312C65.57 49.976 66.194 51.912 66.866 54.12C67.538 56.328 68.21 58.616 68.882 60.984C69.554 63.32 70.21 65.64 70.85 67.944C71.49 70.216 72.05 72.232 72.53 73.992C72.146 74.44 71.57 74.792 70.802 75.048C70.034 75.336 69.122 75.48 68.066 75.48C67.298 75.48 66.642 75.416 66.098 75.288C65.586 75.16 65.154 74.968 64.802 74.712C64.482 74.456 64.21 74.12 63.986 73.704C63.794 73.288 63.618 72.808 63.458 72.264L62.594 68.952H53.906C53.65 69.912 53.394 70.904 53.138 71.928C52.882 72.952 52.626 73.944 52.37 74.904C51.922 75.064 51.442 75.192 50.93 75.288C50.45 75.416 49.858 75.48 49.154 75.48C47.522 75.48 46.306 75.208 45.506 74.664C44.738 74.088 44.354 73.304 44.354 72.312C44.354 71.864 44.418 71.416 44.546 70.968C44.674 70.52 44.818 69.992 44.978 69.384C45.202 68.52 45.506 67.448 45.89 66.168C46.306 64.888 46.754 63.512 47.234 62.04C47.714 60.536 48.226 59 48.77 57.432C49.314 55.864 49.826 54.392 50.306 53.016C50.786 51.608 51.218 50.36 51.602 49.272C52.018 48.184 52.338 47.352 52.562 46.776ZM58.322 52.968C57.874 54.312 57.362 55.816 56.786 57.48C56.242 59.112 55.746 60.776 55.298 62.472H61.25C60.802 60.744 60.338 59.064 59.858 57.432C59.41 55.768 58.994 54.28 58.61 52.968H58.322ZM102.48 74.808C102.128 74.904 101.568 75 100.8 75.096C100.064 75.192 99.3278 75.24 98.5918 75.24C97.8558 75.24 97.1998 75.176 96.6238 75.048C96.0798 74.952 95.6158 74.76 95.2318 74.472C94.8478 74.184 94.5598 73.784 94.3678 73.272C94.1758 72.76 94.0798 72.088 94.0798 71.256V63.768H84.8638V74.808C84.5118 74.904 83.9518 75 83.1838 75.096C82.4478 75.192 81.7118 75.24 80.9758 75.24C80.2398 75.24 79.5838 75.176 79.0078 75.048C78.4638 74.952 77.9998 74.76 77.6158 74.472C77.2318 74.184 76.9438 73.784 76.7518 73.272C76.5598 72.76 76.4638 72.088 76.4638 71.256V45.912C76.8158 45.848 77.3758 45.768 78.1438 45.672C78.9118 45.544 79.6478 45.48 80.3518 45.48C81.0878 45.48 81.7278 45.544 82.2718 45.672C82.8478 45.768 83.3278 45.96 83.7118 46.248C84.0958 46.536 84.3838 46.936 84.5758 47.448C84.7678 47.96 84.8638 48.632 84.8638 49.464V57.144H94.0798V45.912C94.4318 45.848 94.9918 45.768 95.7598 45.672C96.5278 45.544 97.2638 45.48 97.9678 45.48C98.7038 45.48 99.3438 45.544 99.8878 45.672C100.464 45.768 100.944 45.96 101.328 46.248C101.712 46.536 102 46.936 102.192 47.448C102.384 47.96 102.48 48.632 102.48 49.464V74.808Z" fill="#F5F5F5"/>
<defs>
<linearGradient id="paint0_linear_7_37" x1="92.9697" y1="11.6212" x2="29.5" y2="110.848" gradientUnits="userSpaceOnUse">
<stop offset="0.0696303" stop-color="#26EEA0" stop-opacity="0.67"/>
<stop offset="0.9998" stop-color="#208285"/>
<stop offset="0.9999" stop-color="#59CAEE"/>
<stop offset="1" stop-color="#145B7D"/>
</linearGradient>
</defs>
</svg>
