<svg width="248" height="264" viewBox="0 0 248 264" fill="none" xmlns="http://www.w3.org/2000/svg">
<path d="M112 105.984C112 112.611 117.373 117.984 124 117.984C130.627 117.984 136 112.611 136 105.984H112ZM136 12C136 5.37264 130.627 0 124 0C117.373 0 112 5.37264 112 12H136ZM80.9731 54.585C87.0048 51.8386 89.6672 44.7224 86.9216 38.6909C84.1744 32.6594 77.0584 29.9965 71.0269 32.743L80.9731 54.585ZM12 142.56L-0.00158691 142.498L0.000816345 142.699L12 142.56ZM124 252L124.138 240C124.046 240 123.954 240 123.862 240L124 252ZM236 142.56L248.002 142.699L248 142.498L236 142.56ZM176.973 32.743C170.941 29.9965 163.826 32.6594 161.078 38.6909C158.333 44.7224 160.995 51.8386 167.027 54.585L176.973 32.743ZM136 105.984V12H112V105.984H136ZM71.0269 32.743C27.9749 52.3474 0.246253 95.1922 -0.00158691 142.498L23.9999 142.622C24.1987 104.678 46.4394 70.3104 80.9731 54.585L71.0269 32.743ZM0.000816345 142.699C0.789616 210.474 56.3645 264.778 124.138 264L123.862 240C69.3414 240.627 24.6338 196.941 23.9992 142.421L0.000816345 142.699ZM123.862 264C191.635 264.778 247.214 210.474 248.002 142.699L224.002 142.421C223.366 196.941 178.659 240.627 124.138 240L123.862 264ZM248 142.498C247.752 95.1922 220.026 52.3474 176.973 32.743L167.027 54.585C201.56 70.3104 223.802 104.678 224 142.622L248 142.498Z" fill="#0AB2A8"/>
</svg>
