<svg width="721" height="721" viewBox="0 0 721 721" fill="none" xmlns="http://www.w3.org/2000/svg">
<circle cx="360.5" cy="360.5" r="360.5" fill="white" fill-opacity="0.3"/>
<path fill-rule="evenodd" clip-rule="evenodd" d="M498 231.25V479.75C498 509.16 474.16 533 444.75 533H427C397.59 533 373.75 509.16 373.75 479.75V231.25C373.75 201.841 397.59 178 427 178H444.75C474.16 178 498 201.841 498 231.25Z" fill="#DD0505"/>
<path fill-rule="evenodd" clip-rule="evenodd" d="M285 178C314.409 178 338.25 201.841 338.25 231.25V479.75C338.25 509.16 314.409 533 285 533H267.25C237.841 533 214 509.16 214 479.75V231.25C214 201.841 237.841 178 267.25 178H285Z" fill="#DD0505"/>
</svg>
