<svg width="284" height="355" viewBox="0 0 284 355" fill="none" xmlns="http://www.w3.org/2000/svg">
<path fill-rule="evenodd" clip-rule="evenodd" d="M284 53.25V301.75C284 331.16 260.16 355 230.75 355H213C183.59 355 159.75 331.16 159.75 301.75V53.25C159.75 23.8407 183.59 0 213 0H230.75C260.16 0 284 23.8409 284 53.25Z" fill="#4E3636"/>
<path fill-rule="evenodd" clip-rule="evenodd" d="M71 0C100.409 0 124.25 23.8409 124.25 53.25V301.75C124.25 331.16 100.409 355 71 355H53.25C23.8409 355 0 331.16 0 301.75V53.25C0 23.8407 23.8409 0 53.25 0H71Z" fill="#4E3636"/>
</svg>
