<svg width="118" height="118" viewBox="0 0 118 118" fill="none" xmlns="http://www.w3.org/2000/svg">
<circle cx="59" cy="59" r="59" fill="url(#paint0_linear_6_30)"/>
<path d="M41.136 74.808C40.784 74.904 40.224 75 39.456 75.096C38.72 75.192 37.984 75.24 37.248 75.24C36.512 75.24 35.856 75.176 35.28 75.048C34.736 74.952 34.272 74.76 33.888 74.472C33.504 74.184 33.216 73.784 33.024 73.272C32.832 72.76 32.736 72.088 32.736 71.256V63.768H23.52V74.808C23.168 74.904 22.608 75 21.84 75.096C21.104 75.192 20.368 75.24 19.632 75.24C18.896 75.24 18.24 75.176 17.664 75.048C17.12 74.952 16.656 74.76 16.272 74.472C15.888 74.184 15.6 73.784 15.408 73.272C15.216 72.76 15.12 72.088 15.12 71.256V45.912C15.472 45.848 16.032 45.768 16.8 45.672C17.568 45.544 18.304 45.48 19.008 45.48C19.744 45.48 20.384 45.544 20.928 45.672C21.504 45.768 21.984 45.96 22.368 46.248C22.752 46.536 23.04 46.936 23.232 47.448C23.424 47.96 23.52 48.632 23.52 49.464V57.144H32.736V45.912C33.088 45.848 33.648 45.768 34.416 45.672C35.184 45.544 35.92 45.48 36.624 45.48C37.36 45.48 38 45.544 38.544 45.672C39.12 45.768 39.6 45.96 39.984 46.248C40.368 46.536 40.656 46.936 40.848 47.448C41.04 47.96 41.136 48.632 41.136 49.464V74.808ZM53.562 46.776C54.106 46.456 54.922 46.152 56.01 45.864C57.13 45.576 58.25 45.432 59.37 45.432C60.97 45.432 62.378 45.672 63.594 46.152C64.842 46.6 65.642 47.32 65.994 48.312C66.57 49.976 67.194 51.912 67.866 54.12C68.538 56.328 69.21 58.616 69.882 60.984C70.554 63.32 71.21 65.64 71.85 67.944C72.49 70.216 73.05 72.232 73.53 73.992C73.146 74.44 72.57 74.792 71.802 75.048C71.034 75.336 70.122 75.48 69.066 75.48C68.298 75.48 67.642 75.416 67.098 75.288C66.586 75.16 66.154 74.968 65.802 74.712C65.482 74.456 65.21 74.12 64.986 73.704C64.794 73.288 64.618 72.808 64.458 72.264L63.594 68.952H54.906C54.65 69.912 54.394 70.904 54.138 71.928C53.882 72.952 53.626 73.944 53.37 74.904C52.922 75.064 52.442 75.192 51.93 75.288C51.45 75.416 50.858 75.48 50.154 75.48C48.522 75.48 47.306 75.208 46.506 74.664C45.738 74.088 45.354 73.304 45.354 72.312C45.354 71.864 45.418 71.416 45.546 70.968C45.674 70.52 45.818 69.992 45.978 69.384C46.202 68.52 46.506 67.448 46.89 66.168C47.306 64.888 47.754 63.512 48.234 62.04C48.714 60.536 49.226 59 49.77 57.432C50.314 55.864 50.826 54.392 51.306 53.016C51.786 51.608 52.218 50.36 52.602 49.272C53.018 48.184 53.338 47.352 53.562 46.776ZM59.322 52.968C58.874 54.312 58.362 55.816 57.786 57.48C57.242 59.112 56.746 60.776 56.298 62.472H62.25C61.802 60.744 61.338 59.064 60.858 57.432C60.41 55.768 59.994 54.28 59.61 52.968H59.322ZM103.48 74.808C103.128 74.904 102.568 75 101.8 75.096C101.064 75.192 100.328 75.24 99.5918 75.24C98.8558 75.24 98.1998 75.176 97.6238 75.048C97.0798 74.952 96.6158 74.76 96.2318 74.472C95.8478 74.184 95.5598 73.784 95.3678 73.272C95.1758 72.76 95.0798 72.088 95.0798 71.256V63.768H85.8638V74.808C85.5118 74.904 84.9518 75 84.1838 75.096C83.4478 75.192 82.7118 75.24 81.9758 75.24C81.2398 75.24 80.5838 75.176 80.0078 75.048C79.4638 74.952 78.9998 74.76 78.6158 74.472C78.2318 74.184 77.9438 73.784 77.7518 73.272C77.5598 72.76 77.4638 72.088 77.4638 71.256V45.912C77.8158 45.848 78.3758 45.768 79.1438 45.672C79.9118 45.544 80.6478 45.48 81.3518 45.48C82.0878 45.48 82.7278 45.544 83.2718 45.672C83.8478 45.768 84.3278 45.96 84.7118 46.248C85.0958 46.536 85.3838 46.936 85.5758 47.448C85.7678 47.96 85.8638 48.632 85.8638 49.464V57.144H95.0798V45.912C95.4318 45.848 95.9918 45.768 96.7598 45.672C97.5278 45.544 98.2638 45.48 98.9678 45.48C99.7038 45.48 100.344 45.544 100.888 45.672C101.464 45.768 101.944 45.96 102.328 46.248C102.712 46.536 103 46.936 103.192 47.448C103.384 47.96 103.48 48.632 103.48 49.464V74.808Z" fill="#F5F5F5"/>
<defs>
<linearGradient id="paint0_linear_6_30" x1="92.9697" y1="11.6212" x2="29.5" y2="110.848" gradientUnits="userSpaceOnUse">
<stop offset="0.0696303" stop-color="#26EEA0" stop-opacity="0.67"/>
<stop offset="0.495" stop-color="#19DFE6"/>
<stop offset="0.9999" stop-color="#59CAEE"/>
<stop offset="1" stop-color="#04A6F4"/>
</linearGradient>
</defs>
</svg>
