<svg width="10" height="14" viewBox="0 0 10 14" fill="none" xmlns="http://www.w3.org/2000/svg">
<g clip-path="url(#clip0_25_5)">
<path d="M3.25705 7.00006L8.20705 11.9501C8.30256 12.0423 8.37874 12.1526 8.43115 12.2747C8.48356 12.3967 8.51114 12.5279 8.5123 12.6607C8.51345 12.7934 8.48815 12.9251 8.43787 13.048C8.38759 13.1709 8.31333 13.2826 8.21944 13.3765C8.12555 13.4703 8.0139 13.5446 7.891 13.5949C7.7681 13.6452 7.63642 13.6705 7.50365 13.6693C7.37087 13.6682 7.23965 13.6406 7.11764 13.5882C6.99564 13.5358 6.88529 13.4596 6.79305 13.3641L1.13605 7.70706C0.948577 7.51953 0.843262 7.26522 0.843262 7.00006C0.843262 6.73489 0.948577 6.48059 1.13605 6.29306L6.79305 0.636058C6.98165 0.4539 7.23425 0.353106 7.49645 0.355384C7.75864 0.357663 8.00946 0.462832 8.19487 0.64824C8.38027 0.833648 8.48544 1.08446 8.48772 1.34666C8.49 1.60885 8.3892 1.86146 8.20705 2.05006L3.25705 7.00006Z" fill="white"/>
</g>
<defs>
<clipPath id="clip0_25_5">
<rect width="9" height="14" fill="white" transform="translate(0.5)"/>
</clipPath>
</defs>
</svg>
