<svg width="9" height="14" viewBox="0 0 9 14" fill="none" xmlns="http://www.w3.org/2000/svg">
<g clip-path="url(#clip0_25_7)">
<path d="M5.81408 7.07098L0.864086 2.12098C0.681928 1.93238 0.581133 1.67978 0.583412 1.41758C0.58569 1.15538 0.690859 0.904571 0.876267 0.719163C1.06168 0.533755 1.31249 0.428586 1.57468 0.426307C1.83688 0.424029 2.08948 0.524823 2.27808 0.706981L7.93508 6.36398C8.12256 6.55151 8.22787 6.80582 8.22787 7.07098C8.22787 7.33615 8.12256 7.59045 7.93508 7.77798L2.27808 13.435C2.08948 13.6171 1.83688 13.7179 1.57468 13.7157C1.31249 13.7134 1.06168 13.6082 0.876267 13.4228C0.690859 13.2374 0.58569 12.9866 0.583412 12.7244C0.581133 12.4622 0.681928 12.2096 0.864086 12.021L5.81408 7.07098Z" fill="white"/>
</g>
<defs>
<clipPath id="clip0_25_7">
<rect width="8" height="14" fill="white" transform="translate(0.5)"/>
</clipPath>
</defs>
</svg>
