<?xml version="1.0" encoding="iso-8859-1"?>
<!-- Uploaded to: SVG Repo, www.svgrepo.com, Generator: SVG Repo Mixer Tools -->
<svg version="1.1" id="Layer_1" xmlns="http://www.w3.org/2000/svg" xmlns:xlink="http://www.w3.org/1999/xlink" 
	 viewBox="0 0 512 512" xml:space="preserve">
<polygon style="fill:#424242;" points="162.744,107.267 141.845,320.41 325.489,299.511 325.489,107.267 "/>
<path style="fill:#707070;" d="M162.744,107.267H15.075C6.749,107.267,0,114.018,0,122.344v177.167l162.744,20.899V107.267z"/>
<polygon style="fill:#424242;" points="408.869,390.659 372.438,125.871 323.398,125.871 323.398,94.523 399.752,94.523 
	439.922,386.367 "/>
<polygon style="fill:#707070;" points="162.744,414.077 219.928,414.077 212.355,354.284 141.845,333.385 "/>
<g>
	<polygon style="fill:#B4B4B4;" points="113.134,354.284 105.559,414.077 162.744,414.077 162.744,333.385 	"/>
	<path style="fill:#B4B4B4;" d="M162.744,354.284h49.611h98.058c8.326,0,15.076-6.749,15.076-15.076v-39.696H162.744l-20.899,27.386
		L162.744,354.284z"/>
</g>
<path style="fill:#E0E0E0;" d="M162.744,299.511H0v39.696c0,8.326,6.749,15.076,15.075,15.076h98.058h49.611V299.511z"/>
<polygon style="fill:#424242;" points="263.836,398.402 162.744,398.402 141.845,414.077 162.744,429.751 263.836,429.751 "/>
<rect x="61.652" y="398.397" style="fill:#707070;" width="101.088" height="31.348"/>
<g>
	<polygon style="fill:#FFBA00;" points="232.328,157.525 162.744,157.525 141.845,173.199 162.744,188.873 232.328,188.873 	"/>
	<polygon style="fill:#FFBA00;" points="232.328,199.323 162.744,199.323 141.845,214.997 162.744,230.671 232.328,230.671 	"/>
	<polygon style="fill:#FFBA00;" points="232.328,241.12 162.744,241.12 141.845,256.795 162.744,272.469 232.328,272.469 	"/>
</g>
<g>
	<rect x="93.157" y="199.325" style="fill:#FDE09C;" width="69.583" height="31.348"/>
	<rect x="93.157" y="241.123" style="fill:#FDE09C;" width="69.583" height="31.348"/>
	<rect x="93.157" y="157.527" style="fill:#FDE09C;" width="69.583" height="31.348"/>
</g>
<polygon style="fill:#003DA8;" points="344.298,82.252 274.42,82.252 253.521,110.197 274.42,138.142 344.298,138.142 "/>
<rect x="204.538" y="82.249" style="fill:#2F91ED;" width="69.878" height="55.894"/>
<path style="fill:#003DA8;" d="M478.367,381.313c0-7.779-6.306-14.085-14.085-14.085h-46.839l-20.899,23.432l20.899,23.416h60.923
	V381.313z"/>
<path style="fill:#2F91ED;" d="M370.605,367.229c-7.779,0-14.085,6.306-14.085,14.085v32.763h60.923v-46.848H370.605z"/>
<polygon style="fill:#424242;" points="512,398.402 417.444,398.402 396.545,414.077 417.444,429.751 512,429.751 "/>
<rect x="322.888" y="398.397" style="fill:#707070;" width="94.557" height="31.348"/>
</svg>