<?xml version="1.0" encoding="iso-8859-1"?>
<!-- Uploaded to: SVG Repo, www.svgrepo.com, Generator: SVG Repo Mixer Tools -->
<svg version="1.1" id="Layer_1" xmlns="http://www.w3.org/2000/svg" xmlns:xlink="http://www.w3.org/1999/xlink" 
	 viewBox="0 0 512.003 512.003" xml:space="preserve">
<path style="fill:#D84C4C;" d="M345.311,55.752V25.353c0-4.596,3.76-8.357,8.357-8.357h36.667c4.596,0,8.357,3.76,8.357,8.357v30.4
	h-53.38V55.752z"/>
<g>
	<path style="fill:#73AFD6;" d="M413.645,82.094h-83.481V49.953c0-2.565,2.08-4.646,4.646-4.646H409c2.565,0,4.646,2.08,4.646,4.646
		v32.141H413.645z"/>
	<polygon style="fill:#73AFD6;" points="130.668,264.773 67.535,264.773 77.981,191.195 120.222,191.195 	"/>
</g>
<polygon style="fill:#174F79;" points="120.223,191.195 77.981,191.195 75.259,210.37 122.945,210.37 "/>
<g>
	<rect y="254.332" style="fill:#ACAAB1;" width="187.06" height="239.038"/>
	<rect x="231.809" y="72.047" style="fill:#ACAAB1;" width="34.365" height="421.325"/>
	<rect x="477.637" y="72.047" style="fill:#ACAAB1;" width="34.365" height="421.325"/>
</g>
<rect x="231.809" y="71.648" style="fill:#5D5D5D;" width="280.194" height="52.98"/>
<g>
	<circle style="fill:#174F79;" cx="355.507" cy="98.138" r="6.413"/>
	<circle style="fill:#174F79;" cx="388.296" cy="98.138" r="6.413"/>
</g>
<path style="fill:#5D5D5D;" d="M34.061,398.641V296.419c0-4.596,3.76-8.357,8.357-8.357H144.64c4.596,0,8.357,3.76,8.357,8.357
	v102.222H34.061z"/>
<path style="fill:#73AFD6;" d="M171.478,201.641H26.726c-4.596,0-8.357-3.76-8.357-8.357v-89.122c0-4.596,3.76-8.357,8.357-8.357
	h144.751c4.596,0,8.357,3.76,8.357,8.357v89.122C179.834,197.88,176.074,201.641,171.478,201.641z"/>
<path style="fill:#D3EFFD;" d="M179.834,173.675v-69.513c0-4.596-3.76-8.357-8.357-8.357H26.726c-4.596,0-8.357,3.76-8.357,8.357
	v69.631C46.839,174.001,147.383,173.759,179.834,173.675z"/>
<rect x="34.061" y="340.78" style="fill:#3E3B43;" width="118.934" height="23.674"/>
<path style="fill:#312F35;" d="M157.656,421.534H27.891v7.996c0,3.973,3.514,7.194,7.85,7.194h114.067
	c4.335,0,7.85-3.221,7.85-7.194v-7.996H157.656z"/>
<g>
	<path style="fill:#D3EFFD;" d="M401.183,293.089v95.164h29.182V281.928c0-15.243-12.357-27.6-27.6-27.6H372h-30.764
		c-15.243,0-27.601,12.357-27.601,27.6v106.324h29.182v-95.164h58.366V293.089z"/>
	<path style="fill:#D3EFFD;" d="M372,233.77L372,233.77c-16.051,0-29.182-13.132-29.182-29.182v-15.926
		c0-16.051,13.132-29.182,29.182-29.182l0,0c16.051,0,29.182,13.132,29.182,29.182v15.926
		C401.183,220.637,388.051,233.77,372,233.77z"/>
</g>
<g>
	<polygon style="fill:#174F79;" points="342.818,351.915 342.818,495.007 372,495.007 372,381.098 	"/>
	<polygon style="fill:#174F79;" points="401.183,351.915 401.183,495.007 372,495.007 372,381.098 	"/>
</g>
<g>
	<path style="fill:#3E3B43;" d="M153.224,426.195H32.146c-7.577,0-13.777-6.199-13.777-13.777l0,0
		c0-7.577,6.199-13.777,13.777-13.777h121.077c7.577,0,13.777,6.199,13.777,13.777l0,0
		C167.001,419.995,160.801,426.195,153.224,426.195z"/>
	<rect x="231.809" y="124.628" style="fill:#3E3B43;" width="34.365" height="19.617"/>
	<rect x="477.637" y="124.628" style="fill:#3E3B43;" width="34.365" height="19.617"/>
</g>
<rect x="330.166" y="59.604" style="fill:#174F79;" width="83.482" height="12.041"/>
<polygon style="opacity:0.49;fill:#FFFFFF;enable-background:new    ;" points="88.786,95.806 147.264,95.806 104.08,173.875 
	45.603,173.875 "/>
<path style="fill:#73AFD6;" d="M372,381.098L372,381.098c-16.051,0-29.182-13.132-29.182-29.182v-68.405
	c0-16.051,13.132-29.182,29.182-29.182l0,0c16.051,0,29.182,13.132,29.182,29.182v68.404
	C401.183,367.966,388.051,381.098,372,381.098z"/>
<path style="fill:#D3EFFD;" d="M393.286,263.234c-5.448-5.491-12.987-8.906-21.285-8.906l0,0c-8.299,0-15.838,3.415-21.286,8.906
	l21.286,21.222L393.286,263.234z"/>
</svg>