<svg width="32" height="26" viewBox="0 0 32 26" fill="none" xmlns="http://www.w3.org/2000/svg">
<path d="M13.6373 2.43954L12.4779 0.656982C4.45639 6.04886 0 12.6001 0 17.992C0 23.2056 3.83321 25.657 7.08602 25.657C11.1859 25.657 14.0822 22.1803 14.0822 18.5268C14.0822 15.4522 12.1214 12.8226 9.49176 11.8415C8.73453 11.5734 8.02151 11.3509 8.02151 10.0589C8.02151 8.41039 9.22509 5.96045 13.6373 2.43954ZM31.3288 2.43954L30.1694 0.656982C22.2363 6.04886 17.6915 12.6001 17.6915 17.992C17.6915 23.2056 21.6131 25.657 24.866 25.657C29.01 25.657 31.952 22.1803 31.952 18.5268C31.952 15.4522 29.947 12.8226 27.2275 11.8415C26.4703 11.5734 25.8014 11.3509 25.8014 10.0589C25.8014 8.41039 27.0492 5.95902 31.3274 2.43811L31.3288 2.43954Z" fill="#999999"/>
</svg>
