<svg width="32" height="26" viewBox="0 0 32 26" fill="none" xmlns="http://www.w3.org/2000/svg">
<path d="M18.3148 23.8744L19.4741 25.657C27.4956 20.2651 31.952 13.7139 31.952 8.32198C31.952 3.10835 28.1188 0.656982 24.866 0.656982C20.7661 0.656982 17.8698 4.13368 17.8698 7.78721C17.8698 10.8618 19.8306 13.4914 22.4603 14.4725C23.2175 14.7406 23.9305 14.9631 23.9305 16.2551C23.9305 17.9036 22.7269 20.3535 18.3148 23.8744ZM0.623235 23.8744L1.78261 25.657C9.7157 20.2651 14.2605 13.7139 14.2605 8.32198C14.2605 3.10835 10.3389 0.656982 7.08607 0.656982C2.94198 0.656982 5.25404e-05 4.13368 5.25404e-05 7.78721C5.25404e-05 10.8618 2.00507 13.4914 4.72454 14.4725C5.48177 14.7406 6.15059 14.9631 6.15059 16.2551C6.15059 17.9036 4.9028 20.3549 0.62466 23.8759L0.623235 23.8744Z" fill="#999999"/>
</svg>
